<?xml version="1.0" standalone="no"?>
<!DOCTYPE svg PUBLIC "-//W3C//DTD SVG 20010904//EN"
 "http://www.w3.org/TR/2001/REC-SVG-20010904/DTD/svg10.dtd">
<svg version="1.0" xmlns="http://www.w3.org/2000/svg"
 width="1280.000000pt" height="1280.000000pt" viewBox="0 0 1280.000000 1280.000000"
 preserveAspectRatio="xMidYMid meet">
<metadata>
Created by potrace 1.15, written by Peter Selinger 2001-2017
</metadata>
<g transform="translate(0.000000,1280.000000) scale(0.100000,-0.100000)"
fill="#000000" stroke="none">
<path d="M7039 11093 c-10 -2 -45 -40 -80 -84 -37 -47 -79 -89 -100 -100 -50
-25 -97 -84 -111 -137 l-11 -44 -71 8 c-39 4 -110 7 -158 6 -66 -2 -88 1 -88
10 0 7 5 47 11 89 15 98 7 147 -27 155 -13 3 -30 1 -38 -5 -7 -6 -81 -28 -162
-47 -158 -39 -198 -59 -235 -118 -17 -25 -20 -44 -16 -103 3 -62 9 -81 40
-131 26 -41 37 -74 42 -117 l7 -60 -88 4 c-85 3 -91 5 -126 37 -21 18 -49 36
-63 40 -36 9 -307 -26 -324 -42 -13 -12 -13 -18 0 -46 l15 -31 -93 -123 c-93
-123 -136 -165 -273 -267 -58 -43 -104 -66 -198 -100 -68 -25 -133 -54 -145
-65 -12 -11 -44 -22 -71 -26 -56 -7 -96 -29 -96 -52 0 -12 -7 -14 -28 -9 -20
4 -36 0 -54 -15 -34 -26 -36 -26 -46 12 -13 52 -32 56 -100 20 -33 -18 -68
-32 -77 -32 -10 0 -33 -10 -52 -21 -31 -19 -36 -20 -50 -7 -26 27 -28 92 -4
133 41 70 23 99 -97 159 -68 34 -130 43 -168 23 -60 -30 -70 -30 -107 5 -51
49 -225 141 -267 142 -33 1 -35 -1 -40 -39 -7 -57 -39 -72 -87 -39 -40 27 -46
28 -74 14 -24 -14 -24 -41 2 -119 12 -34 19 -64 17 -66 -8 -8 -324 13 -350 24
-22 8 -28 17 -28 40 0 39 -46 180 -65 201 -13 15 -12 24 11 79 24 60 25 67 13
137 -6 41 -18 79 -25 85 -19 16 -55 7 -154 -35 -101 -44 -225 -92 -260 -101
-14 -3 -54 -19 -90 -35 -36 -16 -117 -43 -180 -60 -147 -40 -166 -47 -220 -85
-25 -17 -119 -74 -209 -126 -115 -66 -185 -113 -232 -158 -92 -86 -329 -249
-464 -318 -75 -38 -137 -80 -198 -132 -93 -80 -293 -208 -377 -241 -109 -43
-117 -60 -81 -181 25 -86 61 -249 61 -275 0 -12 16 -33 39 -52 29 -23 40 -40
45 -70 4 -25 19 -54 44 -83 36 -40 38 -45 29 -80 -7 -30 -20 -45 -63 -73 -59
-40 -68 -64 -32 -89 22 -14 23 -19 19 -128 -2 -63 -4 -130 -5 -149 -1 -31 2
-35 27 -38 18 -2 32 -13 42 -31 8 -16 29 -36 48 -44 61 -29 168 -49 225 -42
l53 7 -7 -61 c-6 -55 -4 -65 20 -101 14 -22 37 -47 50 -55 14 -9 34 -41 46
-73 12 -31 27 -70 34 -87 6 -16 11 -48 11 -70 0 -37 2 -41 40 -54 22 -8 72
-15 110 -16 69 -2 71 -3 116 -49 43 -42 50 -46 96 -46 40 0 59 6 91 30 50 36
57 48 77 138 14 59 20 72 36 72 25 0 132 54 179 90 32 25 41 27 115 24 53 -1
88 2 107 12 15 8 54 14 87 14 l59 0 45 -77 c25 -43 65 -117 88 -165 39 -78 46
-88 71 -88 15 0 30 -5 33 -10 3 -6 11 -54 17 -108 8 -69 19 -115 39 -159 17
-36 29 -79 29 -103 0 -46 21 -94 45 -103 12 -5 15 -25 15 -96 0 -159 9 -181
129 -323 57 -67 94 -93 152 -103 31 -6 41 -2 78 29 40 34 48 36 111 36 72 0
81 5 97 55 9 26 14 30 46 29 54 -2 70 -19 61 -68 -3 -22 -13 -51 -21 -63 -8
-12 -13 -32 -11 -45 4 -28 20 -28 138 2 71 18 97 21 155 14 l69 -9 43 -60 c63
-88 88 -136 112 -209 29 -90 27 -125 -14 -206 -19 -38 -35 -75 -35 -81 0 -6
15 -50 34 -98 19 -47 37 -99 41 -115 8 -38 44 -85 78 -102 33 -18 60 -6 81 34
8 15 35 47 60 72 36 34 46 51 46 76 0 24 8 38 35 59 l36 27 34 -26 c18 -14 39
-26 46 -26 7 0 42 -7 78 -16 66 -17 83 -29 101 -71 7 -17 18 -23 43 -23 48 0
133 27 200 63 57 32 58 32 88 14 38 -21 67 -22 90 -1 17 15 20 14 41 -10 13
-14 43 -32 68 -39 38 -11 49 -20 70 -60 39 -74 244 -317 268 -317 17 0 42 30
42 51 0 11 -5 30 -11 41 -12 22 -8 21 43 -14 14 -10 36 -18 47 -18 17 0 21 -6
21 -33 0 -35 -18 -56 -91 -109 -21 -16 -50 -53 -69 -90 -18 -35 -40 -76 -48
-92 -11 -20 -13 -46 -9 -90 5 -54 3 -67 -18 -102 -27 -43 -31 -76 -12 -92 24
-20 83 -25 113 -9 26 14 32 14 57 -1 24 -15 28 -23 26 -57 -3 -75 1 -92 37
-138 43 -55 42 -83 -4 -113 -27 -18 -38 -21 -65 -13 -43 12 -61 5 -97 -40 -22
-28 -34 -60 -45 -116 -16 -83 -10 -109 25 -120 20 -6 20 -7 -5 -37 -30 -36
-30 -38 -4 -72 12 -16 30 -26 46 -26 33 0 99 -37 118 -67 18 -27 40 -29 128
-8 36 8 125 16 198 17 128 3 135 2 167 -21 20 -16 47 -25 71 -26 26 -1 53 -11
81 -30 31 -22 56 -30 101 -33 52 -4 64 -1 107 27 40 25 59 31 105 31 38 0 79
9 121 26 64 25 82 39 139 102 24 27 36 32 72 32 78 0 196 28 223 52 23 22 24
27 18 103 -5 62 -2 91 11 127 l17 47 -33 46 c-29 41 -31 48 -22 83 13 48 51
84 122 115 42 19 65 38 97 80 23 31 63 70 88 88 49 34 37 33 189 12 54 -7 63
-18 38 -45 -29 -30 -43 -71 -43 -119 0 -36 -2 -39 -23 -34 -12 4 -35 1 -50 -4
-26 -10 -28 -15 -25 -58 3 -45 1 -49 -27 -58 -29 -10 -30 -13 -29 -66 1 -38 8
-69 24 -96 l22 -41 -38 -35 c-37 -34 -39 -38 -37 -91 2 -47 -3 -68 -33 -131
-20 -40 -34 -80 -31 -88 5 -14 38 -28 98 -41 35 -8 155 -120 180 -168 22 -43
23 -41 -41 -123 -26 -33 -52 -70 -59 -82 -18 -35 -13 -100 14 -175 l25 -70
-20 -25 c-11 -14 -20 -38 -20 -54 0 -34 34 -54 94 -58 21 -1 48 -8 60 -16 39
-28 98 -10 163 48 17 15 31 18 58 14 41 -7 136 -62 212 -124 63 -51 90 -63
144 -63 l41 0 46 -100 c31 -66 54 -102 67 -106 27 -9 35 -23 35 -66 0 -47 22
-62 72 -46 28 8 51 6 120 -11 92 -23 109 -21 150 17 15 14 29 24 31 21 8 -9
84 -126 105 -159 l21 -36 -24 -53 c-30 -65 -31 -81 -4 -115 27 -35 72 -35 95
-1 19 30 45 32 68 7 9 -11 47 -31 85 -46 38 -15 74 -33 79 -39 5 -7 12 -32 15
-57 4 -30 14 -52 29 -65 15 -13 22 -28 20 -44 -7 -46 54 -277 75 -285 15 -6
67 17 78 34 4 6 25 8 54 4 44 -6 51 -3 83 25 30 26 44 31 84 31 33 0 57 -7 74
-20 29 -23 60 -25 82 -8 24 20 54 70 68 112 l12 38 72 -5 c39 -2 110 -10 158
-18 105 -15 145 -7 173 38 11 18 26 32 34 33 8 0 33 -16 57 -35 23 -19 48 -35
54 -35 16 0 107 82 148 132 31 40 32 43 32 139 0 110 8 137 49 160 21 12 31
29 40 66 15 61 7 83 -51 148 -25 28 -47 58 -51 67 -3 9 -1 47 4 83 10 59 9 69
-7 87 -15 16 -29 19 -74 16 l-55 -3 -7 48 c-3 26 -18 67 -31 90 -14 23 -37 64
-51 92 -33 61 -40 65 -92 58 l-42 -5 -17 52 c-34 101 2 250 66 272 16 5 29 13
30 16 0 4 2 15 4 25 2 11 -19 42 -56 81 -32 35 -59 68 -59 73 0 5 11 24 24 41
13 18 34 64 46 103 22 69 24 71 80 99 31 15 62 35 68 43 7 8 15 61 18 119 l7
105 33 18 c54 29 104 80 104 106 0 13 -7 37 -15 53 -16 30 -15 30 39 85 45 47
55 63 57 96 5 75 49 132 130 168 85 37 99 57 99 138 0 59 3 70 22 83 37 26 57
19 111 -38 45 -47 89 -76 116 -76 4 0 28 16 54 36 31 24 52 34 65 30 17 -6 19
-14 14 -74 -10 -142 71 -188 139 -79 15 24 19 43 15 77 -10 85 -8 92 41 135
44 39 47 44 51 102 4 52 1 67 -18 92 -20 29 -20 31 -3 37 42 13 87 40 148 91
50 41 72 53 98 53 70 0 118 55 154 175 20 67 10 63 129 49 l51 -6 47 57 c61
76 60 94 -10 158 -31 28 -74 75 -96 105 -37 50 -39 56 -33 103 4 27 11 52 17
55 5 4 23 27 39 52 21 33 29 58 29 91 0 41 -4 49 -51 93 l-50 47 0 66 0 67
-42 18 c-23 10 -76 24 -118 31 -72 12 -78 11 -111 -9 -20 -12 -42 -22 -51 -22
-21 0 -47 39 -47 71 0 32 -35 79 -60 79 -14 0 -19 10 -22 42 -4 39 1 49 47
107 27 36 69 84 91 106 54 52 118 151 110 170 -7 19 -39 31 -121 47 -61 11
-68 10 -105 -11 l-40 -22 -13 33 c-12 28 -12 34 0 41 19 12 16 39 -11 88 -14
24 -34 69 -46 99 -52 135 -93 193 -168 237 -40 23 -47 25 -81 13 -31 -10 -43
-9 -74 4 -21 8 -40 23 -44 33 -3 10 -15 28 -26 40 -17 19 -26 21 -86 16 -51
-4 -75 -2 -99 11 -21 11 -57 16 -113 16 -72 0 -84 3 -111 25 -36 30 -53 31
-96 5 -40 -24 -38 -24 -45 0 -8 32 -51 26 -77 -10 -12 -16 -29 -30 -37 -30 -9
0 -42 27 -74 60 -46 48 -63 60 -89 60 -17 0 -41 6 -53 12 -12 7 -50 15 -85 18
l-63 5 21 40 c11 21 20 42 20 46 0 4 -24 32 -54 61 -44 45 -54 62 -60 102 -10
66 1 118 40 197 33 66 35 68 67 63 47 -8 92 28 134 106 19 36 42 77 50 91 22
37 11 58 -37 65 -22 4 -42 10 -45 14 -2 4 14 22 35 39 56 45 66 63 91 173 l22
96 -22 27 c-26 34 -28 96 -3 117 9 8 29 19 45 26 24 10 27 17 27 57 0 41 4 50
46 89 41 37 45 45 35 63 -15 29 13 108 56 156 18 20 33 47 33 58 0 30 -35 83
-65 99 -23 12 -30 12 -54 -3 -44 -26 -71 -22 -71 9 0 48 -50 132 -98 164 -53
35 -66 36 -109 11 -35 -22 -126 -51 -158 -51 -15 0 -25 10 -34 35 -11 32 -18
36 -107 65 -52 16 -101 30 -109 30 -18 0 -23 8 -30 51 -13 76 -38 155 -53 173
-39 44 -176 146 -196 146 -12 0 -37 -15 -55 -34 -26 -27 -42 -35 -83 -38 -42
-4 -54 -11 -80 -42 -23 -28 -35 -35 -51 -30 -25 8 -398 7 -442 -2 l-31 -5 7
75 c4 41 10 80 14 86 24 39 -59 120 -123 120 -21 0 -58 -13 -90 -31 -63 -35
-78 -30 -89 34 -7 49 -83 164 -152 232 -28 27 -51 55 -51 63 0 7 19 54 41 102
l42 89 -29 82 c-36 105 -49 120 -104 126 -41 5 -47 9 -65 47 -28 57 -56 59
-107 9 -42 -41 -88 -115 -88 -142 0 -9 7 -27 16 -39 8 -12 13 -26 9 -31 -7
-12 -202 -171 -210 -171 -3 0 -22 18 -42 41 -30 33 -42 40 -62 35 -14 -2 -70
-14 -124 -26 -105 -23 -130 -22 -168 9 -20 16 -21 21 -10 35 19 22 40 20 83
-9 62 -42 93 -27 87 40 -7 67 1 95 31 110 35 18 39 45 15 102 -20 47 -43 73
-66 73 -10 0 -31 11 -48 25 -25 21 -124 50 -151 44 -3 -1 -12 -3 -21 -6z"/>
</g>
</svg>
