<?xml version="1.0" standalone="no"?>
<!DOCTYPE svg PUBLIC "-//W3C//DTD SVG 20010904//EN"
 "http://www.w3.org/TR/2001/REC-SVG-20010904/DTD/svg10.dtd">
<svg version="1.0" xmlns="http://www.w3.org/2000/svg"
 width="1280.000000pt" height="871.000000pt" viewBox="0 0 1280.000000 871.000000"
 preserveAspectRatio="xMidYMid meet">
<metadata>
Created by potrace 1.15, written by Peter Selinger 2001-2017
</metadata>
<g transform="translate(0.000000,871.000000) scale(0.100000,-0.100000)"
fill="#000000" stroke="none">
<path d="M9524 8695 c-4 -10 1 -24 13 -37 18 -18 24 -19 64 -7 83 23 78 43
-13 54 -49 6 -59 5 -64 -10z"/>
<path d="M10473 8655 c-29 -13 -53 -29 -53 -35 0 -5 0 -13 0 -17 0 -11 184
-12 197 -1 18 15 16 65 -3 72 -33 13 -91 5 -141 -19z"/>
<path d="M8942 8628 c-16 -16 -15 -39 4 -66 19 -27 46 -27 99 -2 22 11 46 19
53 20 6 0 12 6 12 13 0 9 -26 20 -69 30 -82 20 -84 20 -99 5z"/>
<path d="M8670 8621 c-97 -6 -105 -8 -108 -27 -2 -11 6 -32 17 -45 19 -23 20
-24 48 -7 28 16 30 16 51 -4 20 -21 23 -21 83 -7 69 17 85 32 75 72 -5 22 -12
27 -34 25 -15 -1 -74 -4 -132 -7z"/>
<path d="M10066 8603 c-9 -21 11 -53 40 -64 31 -11 149 -3 183 14 34 16 39 45
9 51 -13 3 -69 7 -125 9 -83 4 -103 2 -107 -10z"/>
<path d="M9333 8573 c-7 -18 29 -53 53 -53 26 0 27 29 3 50 -29 24 -48 25 -56
3z"/>
<path d="M9583 8583 c-16 -6 -17 -39 -3 -48 17 -10 71 5 77 22 10 25 -36 42
-74 26z"/>
<path d="M9810 8570 c-87 -23 -100 -30 -100 -47 0 -23 85 -56 110 -43 11 6 20
15 20 20 0 5 18 14 41 20 40 11 60 34 43 50 -19 17 -51 17 -114 0z"/>
<path d="M5464 8538 c-9 -30 8 -68 37 -84 34 -17 40 -58 10 -74 -32 -16 -40
-13 -96 44 -61 61 -89 70 -156 50 l-48 -15 20 -20 c22 -22 22 -47 -1 -61 -16
-11 -62 13 -123 63 -43 35 -75 51 -87 44 -6 -3 -19 -28 -31 -55 -20 -46 -41
-66 -59 -55 -4 3 -22 30 -39 60 -42 74 -56 79 -160 61 -112 -19 -161 -55 -125
-91 13 -13 27 -15 60 -10 52 7 75 -3 104 -50 19 -32 26 -35 66 -35 38 0 46 -4
56 -25 22 -48 78 -42 149 16 37 30 108 38 126 14 7 -11 13 -29 13 -42 0 -19
-5 -23 -29 -23 -27 0 -136 -35 -153 -49 -4 -4 -3 -13 2 -21 6 -10 26 -15 65
-15 53 0 78 -17 35 -23 -26 -4 -36 -28 -20 -47 8 -10 28 -14 56 -13 35 1 54
-6 107 -40 55 -36 71 -42 118 -42 62 0 102 17 108 45 2 11 23 41 46 66 45 48
69 106 59 144 -9 38 17 48 79 30 65 -19 85 -40 122 -123 32 -71 46 -82 105
-82 49 0 90 20 119 56 29 37 26 70 -9 111 -16 18 -30 40 -30 48 0 22 -46 48
-72 41 -15 -3 -45 6 -85 25 -38 19 -70 28 -82 24 -26 -8 -91 20 -91 39 0 11
10 16 30 16 17 0 45 7 61 16 39 20 62 15 69 -16 7 -27 3 -26 140 -20 46 3 61
-1 94 -23 50 -35 103 -35 175 -2 38 18 63 24 86 19 25 -4 38 0 64 22 18 15 46
30 63 33 42 9 55 32 40 66 -12 25 -16 27 -50 19 -40 -9 -175 -10 -635 -3 -271
4 -298 3 -303 -13z"/>
<path d="M9153 8530 c-33 -13 -30 -48 5 -56 15 -3 39 -10 55 -16 29 -11 57 2
57 27 0 33 -75 62 -117 45z"/>
<path d="M11450 8080 c-8 -5 -30 -10 -49 -10 -29 0 -43 -9 -80 -49 l-46 -50
-118 6 c-100 5 -123 3 -157 -12 -36 -16 -48 -17 -108 -6 -73 13 -97 9 -113
-20 -7 -14 -21 -19 -57 -19 -26 0 -68 -7 -94 -15 -26 -7 -62 -11 -80 -8 -43 6
-74 -18 -93 -72 -13 -39 -14 -40 -59 -37 -30 2 -54 -3 -72 -15 -33 -21 -57
-75 -48 -108 7 -29 -36 -75 -72 -75 -30 0 -56 -27 -52 -54 3 -18 9 -21 46 -18
23 1 42 -2 42 -7 0 -19 -32 -40 -68 -46 -67 -10 -86 -20 -96 -48 -8 -22 -6
-33 12 -57 12 -16 22 -36 22 -44 0 -16 -54 -38 -75 -29 -25 9 -62 -5 -68 -26
-11 -42 56 -91 124 -91 21 0 39 -9 58 -29 42 -45 67 -48 100 -12 16 17 34 31
40 31 5 0 23 -21 38 -47 15 -27 32 -52 38 -56 5 -4 40 -6 77 -4 49 3 77 0 106
-13 28 -13 44 -15 56 -8 20 11 53 7 115 -17 24 -9 60 -15 80 -13 31 3 36 7 39
30 5 40 -45 68 -119 68 -49 0 -59 4 -85 31 -16 17 -42 37 -57 45 -15 8 -36 28
-46 44 -10 16 -33 40 -52 53 -48 32 -52 77 -9 117 l32 30 -26 10 c-51 19 -23
61 39 57 33 -2 40 2 57 31 10 19 32 45 48 58 16 14 32 35 36 47 13 44 34 57
92 57 52 0 57 2 96 44 23 24 55 51 71 59 34 17 132 37 182 37 19 0 51 9 72 20
21 10 66 24 99 29 33 5 73 16 89 24 15 8 61 17 102 20 91 7 178 46 187 83 8
32 -20 64 -55 64 -14 1 -37 7 -51 15 -29 17 -69 19 -90 5z"/>
<path d="M2244 7116 c-3 -8 -23 -27 -45 -42 -49 -34 -53 -58 -6 -49 67 14 116
56 104 89 -8 20 -46 21 -53 2z"/>
<path d="M6954 7072 c-75 -89 -94 -98 -94 -43 0 33 -16 51 -46 51 -27 0 -64
-44 -64 -76 0 -25 -43 -64 -70 -64 -35 0 -32 31 7 67 l37 36 -21 17 c-15 12
-42 17 -92 18 l-71 2 -18 -37 c-36 -78 -123 -103 -232 -67 -61 20 -91 16 -107
-16 -9 -18 -22 -26 -50 -30 -30 -4 -39 -10 -41 -27 -4 -28 -37 -31 -64 -6 -16
15 -25 15 -64 5 -24 -7 -55 -12 -69 -12 -17 0 -29 -9 -40 -30 -12 -23 -22 -30
-44 -30 -46 0 -164 -48 -192 -79 -15 -16 -34 -50 -43 -77 -36 -101 -33 -99
-113 -99 -81 0 -113 -19 -113 -66 0 -24 -14 -39 -95 -99 l-95 -71 0 -44 c0
-45 0 -45 -35 -45 -46 0 -57 -23 -59 -118 l-1 -75 -55 -11 c-69 -14 -76 -19
-84 -56 -4 -24 -12 -32 -35 -36 -16 -4 -40 -17 -52 -30 -12 -13 -33 -24 -46
-24 -13 0 -34 -11 -47 -25 -13 -14 -31 -25 -40 -25 -9 0 -19 -8 -22 -17 -14
-45 -20 -48 -76 -45 -64 4 -73 -3 -73 -62 0 -46 -13 -53 -100 -55 -59 -2 -94
-19 -109 -54 -6 -14 -36 -42 -66 -63 -48 -32 -62 -37 -107 -35 -81 2 -88 -10
-96 -154 -6 -102 -4 -122 10 -137 10 -11 24 -16 39 -12 17 4 27 -1 39 -20 22
-33 13 -75 -25 -111 -38 -37 -38 -60 1 -81 l31 -16 -3 -86 -4 -87 47 0 c39 0
52 -5 78 -32 64 -65 133 -67 310 -8 94 31 114 42 159 85 34 34 59 50 76 50 29
0 65 49 65 88 0 36 30 40 57 6 13 -16 39 -45 58 -65 23 -23 35 -45 35 -63 0
-48 26 -84 70 -96 31 -8 41 -17 46 -38 3 -15 19 -65 35 -112 24 -67 40 -95 77
-132 45 -47 46 -48 34 -82 -12 -32 -11 -38 12 -73 14 -21 27 -50 30 -65 3 -16
8 -39 11 -52 7 -34 28 -38 81 -16 25 11 58 20 73 20 36 0 51 17 45 49 -8 37
11 79 41 93 19 9 38 8 80 -2 41 -10 61 -10 79 -2 33 15 66 89 76 170 5 37 14
80 19 96 6 15 11 62 11 104 0 90 13 122 55 135 17 5 41 20 55 33 25 23 27 23
49 7 23 -16 25 -15 43 6 10 14 18 39 18 62 0 32 5 41 29 53 50 26 47 96 -4 96
-25 0 -34 8 -81 68 -24 30 -30 32 -77 30 -48 -3 -52 -1 -61 25 -7 19 -7 37 2
59 10 27 9 37 -7 64 -19 32 -19 33 0 50 10 9 19 27 19 38 1 42 37 105 65 112
15 4 36 22 50 44 16 25 34 40 54 45 16 3 54 28 85 55 30 26 69 51 86 55 17 4
52 27 76 51 25 24 52 44 59 44 22 0 24 26 4 59 -38 62 -21 101 56 130 48 19
50 21 47 55 -3 34 -1 36 40 47 48 13 160 7 278 -14 74 -13 75 -14 73 -42 -2
-20 6 -38 22 -55 31 -32 24 -40 -30 -40 -45 0 -61 -12 -89 -68 -10 -20 -31
-39 -50 -47 -19 -8 -43 -30 -54 -48 -14 -25 -29 -36 -54 -41 -19 -3 -47 -20
-63 -36 -18 -19 -39 -30 -56 -30 -16 0 -33 -6 -38 -12 -6 -7 -26 -32 -45 -54
-20 -23 -36 -51 -36 -63 0 -30 26 -79 67 -125 35 -39 36 -43 12 -103 -11 -28
-10 -39 12 -95 21 -53 29 -63 52 -66 16 -2 35 -15 47 -33 20 -28 24 -29 76
-23 52 7 55 6 87 -28 66 -70 108 -74 216 -23 51 25 86 35 120 35 26 0 83 9
126 20 52 13 111 20 176 20 74 0 105 4 129 18 31 16 32 16 43 -2 27 -43 44
-53 112 -60 81 -8 129 -27 145 -56 18 -33 6 -34 -44 -5 -43 25 -50 26 -94 16
-26 -7 -77 -32 -115 -57 -90 -59 -138 -66 -207 -30 -29 15 -74 30 -102 33 -53
6 -164 -9 -238 -32 -25 -8 -64 -17 -88 -21 -89 -14 -79 -69 32 -175 70 -65 76
-75 74 -108 -1 -20 2 -52 6 -72 7 -35 6 -37 -40 -64 -70 -41 -86 -37 -163 39
-79 78 -96 81 -175 31 -44 -28 -62 -48 -91 -102 l-36 -68 27 -64 c35 -81 42
-156 20 -200 -20 -37 -70 -71 -106 -71 -35 0 -50 -17 -50 -56 0 -38 -12 -49
-70 -64 -89 -23 -117 -24 -129 -2 -6 11 -7 22 -4 26 10 10 -26 44 -54 51 -14
3 -39 1 -57 -4 -17 -6 -65 -13 -106 -15 -41 -2 -76 -5 -77 -5 -2 -1 -9 -17
-17 -36 -8 -19 -21 -35 -28 -36 -7 -1 -50 -2 -95 -3 -68 -1 -86 -5 -105 -23
-67 -60 -119 -59 -223 7 -61 39 -88 50 -120 50 -66 0 -118 -19 -152 -56 -42
-45 -74 -45 -100 -1 -16 25 -34 37 -86 55 -61 22 -66 26 -69 55 -3 27 -7 33
-33 35 -35 4 -45 16 -45 55 0 15 -5 36 -12 46 -10 16 -7 24 20 51 18 17 32 36
32 41 0 20 42 49 70 49 49 0 70 63 26 80 -39 14 -50 45 -36 96 11 37 10 48 -6
81 -28 56 -54 55 -90 -1 -16 -25 -31 -46 -34 -47 -3 0 -38 -1 -78 -2 -69 -2
-75 -4 -102 -34 -37 -42 -64 -130 -55 -183 4 -22 20 -58 36 -80 16 -22 32 -55
36 -73 3 -18 25 -70 49 -115 56 -108 56 -131 2 -182 -24 -22 -47 -40 -52 -40
-6 0 -22 11 -36 25 -27 26 -40 29 -106 27 -38 -2 -42 -5 -48 -33 -5 -27 -9
-30 -28 -24 -58 17 -69 16 -130 -14 -35 -17 -85 -47 -112 -66 -37 -27 -58 -35
-92 -35 -41 0 -44 -2 -44 -27 0 -16 -18 -57 -40 -93 -43 -70 -48 -99 -25 -144
8 -15 15 -37 15 -48 0 -18 -5 -19 -82 -12 -82 6 -83 6 -123 -26 -34 -27 -46
-31 -77 -26 -20 3 -48 1 -63 -6 -25 -11 -28 -18 -40 -93 -7 -44 -36 -105 -58
-123 -8 -7 -36 -15 -63 -19 -27 -3 -52 -10 -55 -15 -3 -5 -1 -27 5 -49 13 -49
-1 -69 -34 -46 -16 11 -40 14 -106 9 l-85 -5 -43 47 c-48 51 -70 56 -110 25
-31 -25 -33 -41 -5 -78 24 -33 44 -110 31 -123 -5 -5 -41 -10 -79 -11 -58 -2
-75 2 -93 18 -33 29 -92 26 -127 -7 -26 -25 -34 -27 -110 -25 -100 2 -118 -9
-75 -48 26 -23 29 -32 25 -65 -6 -43 13 -61 63 -58 16 1 63 -4 104 -11 69 -12
78 -17 115 -57 29 -31 49 -44 68 -44 25 0 27 -3 27 -43 0 -36 6 -48 38 -80 20
-20 52 -41 70 -48 35 -12 35 -13 49 -128 11 -93 -1 -195 -33 -286 -14 -38 -29
-87 -33 -107 -15 -72 -51 -93 -174 -101 -80 -6 -89 -4 -107 15 -20 22 -22 21
-100 -7 -62 -23 -140 -15 -216 23 -59 29 -60 30 -204 26 -129 -3 -149 -2 -183
16 -20 11 -45 20 -55 20 -29 0 -59 -27 -65 -60 -6 -30 -7 -30 -72 -30 -57 0
-69 -3 -90 -25 -37 -36 -33 -76 15 -142 46 -64 47 -74 20 -143 -27 -68 -25
-86 10 -107 18 -10 30 -26 30 -38 0 -38 -47 -153 -78 -193 -24 -30 -32 -50
-32 -81 0 -28 -5 -44 -15 -48 -29 -10 -45 -60 -45 -134 l0 -71 34 6 c52 10 68
-22 67 -140 0 -52 -3 -99 -6 -105 -4 -5 -4 -20 -1 -33 5 -19 17 -24 80 -35 72
-13 76 -13 106 9 48 34 91 41 138 20 38 -17 60 -49 48 -68 -13 -22 16 -82 50
-103 20 -12 40 -32 44 -45 14 -35 40 -30 80 16 51 59 111 71 377 77 148 3 215
8 222 16 5 7 18 37 28 66 22 65 61 91 138 91 27 0 55 4 61 8 15 10 34 69 34
106 0 40 16 56 54 56 49 0 73 10 84 35 6 13 26 28 45 34 22 8 37 20 41 34 7
28 -19 67 -44 67 -42 0 -48 70 -15 160 8 19 21 61 29 92 22 78 53 111 135 143
63 24 106 49 190 110 19 14 46 25 60 25 65 0 105 77 76 146 -8 20 -15 58 -15
83 0 60 24 84 105 106 101 26 176 16 224 -28 33 -31 82 -47 142 -47 41 0 58 7
116 47 69 47 147 83 182 83 36 0 64 34 70 86 l6 49 41 -2 c22 -1 82 -16 133
-34 104 -36 123 -53 177 -162 20 -38 55 -90 79 -116 25 -27 47 -63 54 -87 12
-45 25 -54 72 -54 25 0 33 -6 44 -35 12 -27 29 -41 82 -68 38 -19 84 -44 103
-56 26 -15 51 -21 98 -21 67 0 72 -4 86 -70 7 -36 54 -60 118 -60 69 0 78 -7
75 -55 -2 -36 1 -41 37 -61 62 -35 145 -122 151 -158 14 -80 11 -101 -13 -104
-27 -4 -38 -23 -47 -85 -6 -36 -3 -53 9 -72 29 -44 56 -32 106 48 25 39 50 84
57 99 9 20 19 28 37 28 14 0 31 9 40 22 36 51 6 117 -62 139 -20 6 -43 16 -49
22 -20 15 -15 54 9 77 12 11 23 33 24 47 2 47 27 52 92 18 52 -28 57 -33 60
-67 3 -30 8 -39 27 -44 39 -10 74 23 75 69 0 32 -5 40 -31 55 -17 9 -90 52
-162 94 -72 43 -147 81 -167 84 -59 9 -63 12 -55 37 28 89 12 106 -111 113
-103 6 -167 26 -186 57 -8 12 -27 54 -43 92 -16 39 -41 88 -55 110 -15 22 -39
63 -54 91 -29 55 -58 74 -107 74 -21 0 -40 10 -61 30 -29 29 -30 34 -23 83 5
29 9 77 9 107 l1 54 39 11 c21 6 47 23 58 38 24 34 48 34 78 2 19 -20 22 -31
17 -67 -3 -26 0 -55 8 -75 13 -31 17 -33 60 -33 39 0 47 -3 55 -25 12 -32 33
-32 50 0 21 39 42 33 34 -11 -5 -27 -2 -40 13 -57 11 -12 25 -41 32 -65 10
-36 20 -47 62 -70 28 -15 85 -46 126 -69 61 -34 86 -43 125 -43 56 0 73 -13
118 -93 28 -49 61 -77 94 -77 7 0 43 -15 82 -33 38 -19 84 -40 102 -47 64 -25
63 -20 47 -302 l-4 -76 33 -20 c28 -17 34 -27 38 -66 7 -56 22 -76 57 -76 34
0 70 -37 105 -107 16 -32 34 -54 48 -58 13 -4 42 -16 64 -26 35 -15 51 -17
100 -9 43 7 75 6 127 -5 82 -17 95 -26 99 -68 3 -31 5 -32 46 -32 28 0 48 -6
55 -16 13 -17 50 -39 66 -39 19 0 41 32 41 59 0 29 -43 77 -95 105 l-30 16 40
-6 c22 -4 42 -8 44 -10 2 -2 12 1 22 7 39 20 14 65 -56 102 -16 9 -40 21 -53
28 -18 10 -27 10 -48 -1 -18 -10 -30 -11 -42 -4 -23 15 -27 48 -7 64 24 20 18
34 -34 78 -47 40 -49 43 -53 104 -7 90 17 115 52 55 11 -19 31 -39 45 -45 14
-6 25 -18 25 -26 0 -25 21 -29 43 -8 12 11 32 23 45 27 19 5 22 12 20 47 -4
59 25 78 122 80 123 2 166 -9 189 -48 23 -39 51 -43 136 -20 61 16 92 31 125
61 23 21 37 24 145 27 l120 4 0 35 c0 33 -2 34 -46 40 -95 14 -159 67 -159
131 0 32 -6 45 -30 66 -34 30 -36 51 -18 134 14 64 21 75 67 96 49 24 57 56
42 164 -18 122 -13 128 101 143 l47 6 7 81 c7 78 8 81 41 100 18 11 41 34 49
50 8 16 26 34 40 40 14 7 28 24 32 42 10 39 54 49 72 17 6 -12 21 -21 35 -21
13 0 31 -9 39 -21 14 -21 111 -59 148 -59 10 0 48 7 84 16 67 17 90 12 79 -18
-3 -8 -37 -30 -76 -48 -38 -19 -79 -44 -91 -57 -19 -20 -20 -25 -7 -38 8 -8
41 -17 74 -21 87 -9 105 -24 105 -82 0 -35 6 -54 20 -70 37 -39 110 -21 110
27 0 35 24 43 65 24 l38 -18 16 25 c9 13 26 36 38 50 l22 25 43 -23 c53 -27
99 -28 122 -3 43 48 -25 90 -113 70 -83 -19 -134 7 -174 87 -11 21 -26 33 -47
37 -16 4 -30 11 -30 17 0 11 7 14 55 25 16 4 48 26 70 50 l40 43 119 5 c115 5
119 6 150 36 52 50 127 68 144 33 6 -11 1 -51 -14 -117 -13 -55 -24 -118 -24
-140 0 -56 -22 -85 -66 -85 -27 0 -34 -4 -34 -20 0 -38 56 -78 140 -100 25 -6
56 -22 70 -35 14 -13 45 -28 70 -34 29 -6 54 -20 70 -39 14 -16 59 -68 99
-115 56 -65 84 -90 110 -97 53 -14 77 -12 113 10 26 15 51 20 111 20 120 0
174 -30 243 -138 43 -67 71 -78 137 -56 97 32 194 3 274 -84 l53 -57 132 -8
c73 -5 169 -10 213 -12 59 -1 89 -7 115 -23 46 -26 91 -35 140 -27 l39 7 -55
66 c-31 37 -74 89 -96 115 -22 26 -59 60 -81 74 -59 37 -66 50 -67 121 0 69
-5 82 -62 160 -35 47 -42 52 -78 52 -63 0 -67 23 -20 130 15 36 32 83 36 105
8 37 12 40 50 47 93 15 202 97 188 141 -5 17 -2 18 25 12 20 -4 37 -2 46 5 9
7 27 10 44 7 15 -3 32 -2 37 3 5 5 25 10 44 12 29 2 36 8 43 33 5 17 13 37 17
45 12 26 70 23 142 -6 37 -15 71 -25 74 -22 3 4 -11 31 -31 60 -20 32 -33 61
-30 70 4 9 -5 43 -19 77 -15 35 -26 80 -26 106 0 58 -27 110 -79 153 -28 22
-52 56 -75 106 -18 40 -44 80 -57 89 -12 9 -20 19 -17 23 4 3 0 21 -8 39 -8
19 -14 36 -14 39 0 14 69 24 136 19 61 -4 88 -2 119 11 22 10 68 20 103 23 52
5 62 9 62 25 0 10 5 27 12 37 9 15 6 29 -21 76 -18 31 -31 58 -29 59 2 0 29
14 61 30 52 26 64 28 135 24 79 -5 124 -21 252 -92 25 -14 107 -51 183 -82
l137 -57 43 33 c100 80 117 96 117 114 0 10 7 45 16 79 14 55 14 69 -1 161 -9
56 -20 149 -25 208 -8 116 -23 154 -73 192 l-29 21 -21 -30 c-39 -56 -118
-126 -163 -146 -97 -41 -201 -12 -287 80 -52 56 -97 138 -97 178 0 59 39 83
209 133 123 36 153 85 116 191 -21 60 -84 164 -142 235 l-48 59 -6 120 c-4 76
-13 145 -26 190 -12 39 -42 165 -67 280 -79 362 -160 621 -231 736 -34 55 -35
60 -22 91 23 55 127 138 280 222 91 51 91 75 -6 218 -49 74 -53 78 -97 84 -25
3 -69 17 -99 31 -34 16 -84 28 -135 33 -45 4 -99 14 -121 22 -24 9 -101 18
-188 22 -128 6 -148 5 -153 -8 -12 -32 5 -64 41 -76 43 -14 71 -60 55 -90 -6
-11 -15 -20 -20 -20 -5 0 -25 -13 -43 -30 -19 -16 -42 -30 -50 -30 -9 0 -35
27 -57 60 -43 63 -71 76 -89 41 -21 -39 -85 -53 -266 -57 l-170 -3 -28 -36
c-37 -45 -76 -47 -118 -6 -16 16 -29 38 -29 49 0 26 -37 72 -59 72 -9 0 -32
-11 -49 -24 -19 -13 -53 -26 -82 -29 -27 -3 -70 -17 -97 -31 -26 -15 -60 -26
-75 -26 -41 0 -114 -31 -187 -78 -49 -32 -74 -42 -105 -42 -52 0 -59 -5 -84
-62 -35 -79 -96 -94 -214 -52 -22 8 -53 14 -67 14 -34 0 -51 17 -51 52 0 35
30 52 95 53 44 0 50 3 53 23 2 13 -3 33 -11 45 -20 30 -130 85 -197 97 -91 18
-226 20 -246 6 -16 -12 -15 -15 12 -31 118 -73 115 -68 88 -153 -9 -28 -14
-57 -11 -65 3 -7 31 -19 63 -26 33 -7 67 -17 77 -22 21 -12 22 -42 1 -60 -10
-8 -14 -22 -11 -38 13 -64 13 -66 -14 -69 -14 -2 -56 8 -94 23 -37 14 -100 28
-139 31 -107 8 -112 10 -140 58 -14 24 -37 51 -50 60 -17 10 -30 32 -37 61
-13 51 -24 60 -89 69 -28 4 -65 20 -95 41 -56 40 -101 55 -166 55 -58 0 -94
13 -178 61 -50 30 -76 39 -111 39 -26 0 -86 14 -135 30 -51 17 -110 30 -139
30 -29 0 -59 7 -70 15 -25 19 -50 19 -103 -1 -56 -22 -85 -13 -106 31 -30 63
-142 94 -196 56 -41 -30 -114 -37 -170 -17 -24 9 -60 16 -80 16 -43 0 -61 14
-61 48 0 19 4 22 20 18 11 -3 28 -8 38 -11 26 -7 125 13 134 28 10 17 -3 27
-48 33 -21 3 -60 14 -86 25 -57 23 -118 24 -159 3 -17 -8 -42 -14 -57 -12 -22
2 -28 9 -32 38 -5 33 -7 35 -47 38 -32 2 -46 -2 -59 -16z m-627 -4008 c-3 -3
-12 -4 -19 -1 -8 3 -5 6 6 6 11 1 17 -2 13 -5z"/>
<path d="M6365 7060 c-11 -5 -32 -9 -47 -9 -16 -1 -28 -5 -28 -9 0 -14 69 -42
106 -42 27 0 37 5 46 26 10 21 9 27 -3 35 -17 11 -47 10 -74 -1z"/>
<path d="M11057 6975 c-39 -39 -12 -67 83 -90 41 -9 88 -24 103 -32 36 -18 57
-11 57 20 0 31 -18 47 -51 47 -18 0 -38 11 -57 31 -36 39 -108 52 -135 24z"/>
<path d="M9811 6804 c-27 -34 -26 -50 4 -79 19 -20 34 -25 77 -25 66 0 156 20
162 37 9 23 -29 51 -101 72 -94 28 -117 27 -142 -5z"/>
<path d="M5448 6760 c-74 -26 -128 -58 -128 -77 0 -27 81 -11 126 25 22 16 49
33 62 37 22 6 26 26 6 32 -5 1 -34 -6 -66 -17z"/>
<path d="M5466 6699 c-31 -36 -31 -41 -8 -61 27 -24 79 -5 96 35 16 39 5 57
-34 57 -19 0 -37 -10 -54 -31z"/>
<path d="M5280 6617 l-55 -21 45 -13 c73 -22 140 0 124 41 -8 21 -45 19 -114
-7z"/>
<path d="M5125 6571 c-6 -11 33 -36 42 -27 3 3 3 12 0 21 -7 17 -33 20 -42 6z"/>
<path d="M1097 6303 c-4 -3 -7 -17 -7 -29 0 -16 -7 -25 -22 -28 -13 -3 -36 -8
-53 -11 -16 -3 -40 -9 -53 -12 -13 -3 -33 -1 -45 5 -24 11 -104 23 -177 25
-41 2 -45 0 -48 -23 -8 -77 -29 -95 -64 -55 -23 27 -81 50 -103 41 -9 -3 -15
-18 -15 -35 0 -26 -7 -33 -49 -55 -27 -13 -52 -22 -55 -19 -3 4 -6 21 -6 39 0
53 -17 84 -55 100 -65 27 -92 28 -121 5 -15 -11 -41 -21 -58 -21 -34 0 -50 -8
-119 -59 -53 -39 -57 -53 -25 -75 31 -22 41 -20 77 10 23 19 46 27 91 31 69 7
90 -5 90 -48 0 -22 -7 -32 -30 -44 -27 -14 -41 -14 -112 -4 -75 12 -81 12 -94
-6 -27 -37 -10 -75 33 -75 30 0 72 -21 97 -48 14 -16 16 -29 11 -59 -5 -31 -2
-42 12 -55 27 -23 87 -28 149 -12 74 19 82 18 149 -12 l56 -26 62 23 c60 23
72 24 359 25 233 0 300 3 313 14 26 21 45 66 45 103 0 45 32 84 87 108 23 10
44 24 44 31 5 55 -19 86 -70 90 -31 3 -38 8 -46 35 -6 18 -22 44 -35 58 -25
26 -44 28 -92 10 -11 -4 -27 5 -49 29 -30 34 -57 45 -72 29z"/>
<path d="M2280 5555 c0 -22 36 -86 51 -90 21 -7 66 13 73 32 8 19 -29 53 -56
53 -13 0 -33 3 -45 6 -13 4 -23 3 -23 -1z"/>
<path d="M3122 5243 c-38 -15 -34 -71 8 -93 25 -13 84 10 99 39 22 40 -50 77
-107 54z"/>
<path d="M6252 5184 c-15 -10 -22 -24 -20 -37 2 -18 10 -22 37 -22 41 0 62 25
45 53 -15 23 -35 26 -62 6z"/>
<path d="M2888 4978 c-33 -11 -37 -42 -9 -57 13 -8 32 -6 65 5 51 18 60 39 20
54 -30 12 -40 12 -76 -2z"/>
<path d="M6659 4939 l-33 -31 24 -19 c47 -36 130 -16 130 32 0 15 -52 49 -75
49 -7 0 -28 -14 -46 -31z"/>
<path d="M6775 4855 c-22 -8 -58 -14 -80 -14 -47 -1 -115 -19 -115 -30 0 -4
10 -28 23 -52 32 -59 62 -63 119 -15 23 20 59 41 80 47 27 7 39 16 44 34 11
46 -3 52 -71 30z"/>
<path d="M2582 4838 c-6 -6 -12 -25 -12 -40 0 -39 -29 -64 -97 -84 -32 -9 -62
-19 -68 -22 -11 -6 10 22 38 50 17 18 22 53 11 82 -17 44 -135 -3 -169 -67
-18 -34 -19 -39 -5 -64 11 -20 25 -29 47 -31 30 -3 31 -5 23 -28 -23 -59 1
-101 47 -83 31 11 53 -3 53 -35 0 -12 14 -33 32 -47 32 -26 32 -27 22 -83 -12
-66 -6 -76 47 -69 45 6 69 -8 69 -43 0 -12 5 -26 10 -29 21 -13 9 -47 -30 -84
-42 -39 -51 -74 -24 -85 47 -18 138 5 175 45 33 36 44 26 53 -51 6 -48 13 -60
52 -96 54 -50 60 -90 18 -123 -53 -42 -120 -47 -172 -13 -37 24 -46 3 -52
-116 l-5 -107 -36 -17 c-47 -22 -81 -65 -77 -97 3 -26 4 -26 131 -34 150 -9
180 -18 175 -50 -3 -20 -10 -23 -70 -28 -52 -4 -76 -12 -109 -35 -23 -16 -60
-41 -83 -56 -44 -29 -116 -112 -116 -134 0 -37 86 -26 136 18 27 24 40 29 62
23 87 -22 96 -20 152 34 56 54 74 60 120 36 36 -19 67 -13 136 26 50 28 55 29
203 29 162 0 202 8 251 54 14 13 34 29 45 35 18 11 17 12 -11 7 -37 -6 -74 16
-74 44 0 20 31 45 100 80 25 12 48 28 52 34 11 16 -1 97 -19 124 -12 20 -20
23 -52 17 -53 -9 -92 22 -84 68 4 28 1 35 -18 43 -15 7 -26 24 -33 55 -10 39
-15 44 -41 47 -33 4 -57 26 -49 47 9 23 -15 54 -56 75 -22 11 -59 33 -82 49
-40 27 -43 33 -43 75 -1 42 -5 51 -52 98 l-52 52 -80 -3 c-114 -3 -162 33 -86
65 20 8 41 26 47 40 6 13 23 27 37 30 73 15 84 33 97 165 6 63 5 68 -17 83
-23 14 -30 13 -104 -10 -96 -30 -161 -29 -158 1 1 11 11 27 23 35 35 24 70 58
70 69 0 21 -32 42 -54 34 -22 -8 -97 -7 -181 2 -33 4 -54 2 -63 -7z"/>
<path d="M6135 4699 c-71 -17 -107 -72 -66 -101 11 -8 21 -27 23 -43 5 -51 57
-43 58 9 0 10 14 34 30 53 17 18 30 42 30 51 0 18 -18 43 -29 41 -4 -1 -24 -5
-46 -10z"/>
<path d="M5863 4518 c-18 -25 -34 -111 -23 -122 20 -20 63 15 77 64 16 54 11
70 -20 70 -14 0 -29 -6 -34 -12z"/>
<path d="M2383 4463 c-21 -8 -15 -51 7 -58 25 -8 40 1 40 25 0 21 -28 40 -47
33z"/>
<path d="M5202 4335 c-19 -21 -30 -25 -82 -25 -55 0 -60 -2 -66 -25 -9 -35 1
-53 37 -73 17 -9 47 -27 66 -40 20 -13 40 -21 45 -20 5 2 18 26 28 53 9 28 23
64 31 82 12 28 11 34 -6 52 -23 27 -27 26 -53 -4z"/>
<path d="M2396 4318 c-22 -30 -3 -48 24 -23 11 10 20 24 20 32 0 21 -27 15
-44 -9z"/>
<path d="M2456 4251 c-8 -12 21 -34 34 -26 8 5 8 11 -1 21 -13 16 -25 18 -33
5z"/>
<path d="M2126 4187 c-60 -15 -98 -31 -118 -49 -37 -34 -35 -45 7 -62 41 -17
51 -36 36 -65 -20 -37 -49 -36 -105 3 -61 42 -112 48 -141 16 -28 -31 -13 -67
35 -80 45 -12 47 -16 24 -48 -9 -14 -26 -22 -43 -22 -30 0 -45 -19 -35 -44 3
-8 27 -17 59 -21 29 -3 61 -12 71 -19 17 -13 14 -17 -37 -64 -29 -28 -63 -51
-73 -52 -24 0 -116 -98 -116 -123 0 -10 20 -38 45 -63 42 -41 49 -44 98 -44
79 0 216 40 262 77 48 38 105 54 183 52 33 -1 65 2 72 6 39 24 83 208 73 310
-4 51 -2 64 16 87 12 15 34 33 49 40 15 7 27 19 27 26 0 20 -98 151 -118 158
-10 3 -24 0 -32 -6 -9 -8 -27 -10 -47 -6 -73 15 -107 14 -192 -7z"/>
<path d="M5634 4195 c-7 -18 12 -45 32 -45 20 0 36 34 22 48 -17 17 -48 15
-54 -3z"/>
<path d="M5047 4134 c-4 -4 -7 -15 -7 -23 0 -23 109 -49 121 -29 16 25 -15 53
-63 56 -24 2 -47 0 -51 -4z"/>
<path d="M4866 1677 c-10 -14 -32 -31 -50 -37 -64 -21 -78 -119 -19 -141 21
-8 23 -13 18 -43 -6 -28 -3 -36 14 -45 37 -20 71 10 92 82 13 45 -1 164 -21
190 l-17 21 -17 -27z"/>
<path d="M4850 1323 c-35 -19 -55 -24 -88 -20 -65 7 -102 -42 -47 -63 22 -8
24 -13 15 -29 -17 -34 -12 -59 17 -73 24 -12 27 -19 28 -68 1 -30 -5 -68 -12
-83 -12 -25 -12 -32 2 -53 8 -13 20 -24 25 -24 5 0 10 -10 12 -22 2 -17 11
-24 31 -26 21 -3 36 6 68 37 22 23 48 41 59 41 25 0 32 26 20 75 -5 22 -7 78
-3 125 7 102 -7 161 -44 189 -31 25 -27 25 -83 -6z"/>
<path d="M3762 1044 c-12 -8 -22 -21 -22 -29 0 -16 72 -55 103 -55 45 0 66 39
42 76 -12 19 -24 24 -58 24 -23 0 -53 -7 -65 -16z"/>
<path d="M3558 923 c-37 -10 -25 -68 17 -79 50 -12 75 41 33 70 -12 9 -25 15
-28 15 -3 -1 -12 -3 -22 -6z"/>
<path d="M5886 740 c-40 -26 -102 -32 -166 -18 -64 13 -229 11 -247 -4 -7 -6
-13 -28 -13 -49 0 -43 27 -79 60 -79 10 0 35 -13 53 -30 35 -31 61 -38 72 -20
12 20 34 9 37 -17 2 -23 8 -28 29 -28 17 0 35 -10 49 -27 15 -20 31 -28 53
-28 18 0 51 -9 75 -20 35 -16 47 -17 68 -8 49 22 44 88 -9 103 -46 14 -48 46
-3 95 40 44 43 63 22 115 -17 40 -36 43 -80 15z"/>
<path d="M6996 700 c-40 -12 -76 -49 -76 -77 0 -19 10 -28 48 -45 26 -11 48
-21 49 -22 1 -1 5 -21 8 -45 8 -70 21 -84 65 -77 43 7 56 -4 66 -53 9 -42 24
-50 24 -12 0 40 22 41 59 1 15 -17 30 -27 34 -24 10 11 -4 126 -20 157 -19 38
-11 56 21 50 34 -7 34 10 0 56 -37 49 -53 61 -86 61 -16 0 -46 9 -68 20 -41
21 -76 24 -124 10z"/>
<path d="M7490 691 c0 -14 11 -25 33 -34 17 -8 38 -21 46 -31 10 -12 17 -13
27 -5 20 17 2 50 -37 64 -19 7 -42 16 -51 20 -14 5 -18 2 -18 -14z"/>
<path d="M7520 466 c-46 -17 -47 -42 -2 -39 34 1 76 29 66 44 -7 12 -21 10
-64 -5z"/>
<path d="M7657 363 c-12 -11 14 -33 39 -33 32 0 31 18 -2 30 -30 12 -29 12
-37 3z"/>
<path d="M7376 207 c-21 -15 -24 -60 -6 -81 6 -8 33 -18 58 -21 81 -11 125
-26 172 -55 54 -34 164 -57 186 -39 30 25 4 117 -39 136 -12 6 -66 8 -122 6
-100 -5 -100 -5 -139 26 -21 17 -45 31 -52 31 -7 0 -18 2 -26 5 -7 3 -22 -1
-32 -8z"/>
</g>
</svg>
