<?xml version="1.0" standalone="no"?>
<!DOCTYPE svg PUBLIC "-//W3C//DTD SVG 20010904//EN"
 "http://www.w3.org/TR/2001/REC-SVG-20010904/DTD/svg10.dtd">
<svg version="1.0" xmlns="http://www.w3.org/2000/svg"
 width="1280.000000pt" height="1280.000000pt" viewBox="0 0 1280.000000 1280.000000"
 preserveAspectRatio="xMidYMid meet">
<metadata>
Created by potrace 1.15, written by Peter Selinger 2001-2017
</metadata>
<g transform="translate(0.000000,1280.000000) scale(0.100000,-0.100000)"
fill="#000000" stroke="none">
<path d="M6295 12412 c-55 -21 -135 -57 -177 -80 l-76 -41 -27 21 c-36 28
-101 34 -149 14 -21 -9 -56 -16 -78 -16 -22 0 -47 -4 -56 -9 -11 -6 -33 -5
-58 1 -49 13 -76 7 -131 -28 -53 -35 -72 -71 -81 -159 l-7 -70 -40 -3 c-35 -3
-120 15 -181 38 -11 4 -31 28 -44 53 -40 76 -80 81 -133 17 -19 -22 -39 -33
-73 -39 -25 -5 -50 -15 -55 -22 -15 -23 -28 -80 -35 -152 -6 -63 -5 -70 18
-95 77 -83 11 -105 -109 -36 -47 27 -70 29 -130 11 -51 -15 -123 -87 -123
-123 0 -32 43 -125 68 -148 l21 -18 -24 -36 c-31 -46 -31 -57 0 -78 32 -21 32
-38 1 -52 -21 -9 -27 -8 -40 13 -9 14 -23 49 -31 80 -7 30 -17 60 -21 66 -18
30 -227 -24 -239 -62 -5 -14 -15 -19 -43 -19 -75 0 -102 46 -102 177 0 62 -3
74 -20 83 -25 13 -51 1 -69 -34 -11 -20 -19 -24 -41 -19 -36 7 -66 -10 -90
-50 -23 -36 -25 -73 -9 -127 16 -52 -14 -105 -112 -198 -45 -43 -83 -88 -88
-106 -5 -17 -13 -69 -16 -116 -5 -66 -3 -91 8 -114 12 -22 13 -34 5 -52 -13
-28 -26 -29 -71 -10 -31 12 -35 19 -55 103 -12 49 -22 109 -22 135 0 53 -34
98 -73 98 -52 0 -94 25 -164 96 l-72 74 1 103 c1 173 -31 202 -141 127 -62
-43 -71 -55 -71 -99 0 -36 -38 -72 -68 -64 -51 13 -67 -53 -37 -155 l16 -53
-28 -23 c-16 -13 -49 -62 -73 -109 l-45 -86 -33 21 -33 20 -34 -38 -35 -38
-63 12 c-34 6 -85 17 -114 24 -51 11 -52 11 -88 -21 -37 -32 -37 -32 -118 -26
-71 6 -87 4 -122 -14 -42 -23 -80 -27 -90 -11 -14 22 -57 9 -89 -27 -28 -30
-44 -37 -87 -44 -30 -4 -67 -12 -83 -18 l-29 -12 6 -81 c6 -73 10 -85 37 -113
16 -17 48 -42 70 -56 33 -20 40 -30 40 -56 0 -77 70 -193 115 -193 20 0 45
-29 45 -51 0 -11 -15 -33 -32 -50 -27 -24 -33 -37 -33 -71 0 -40 -1 -41 -65
-75 -36 -18 -77 -47 -91 -63 -14 -17 -33 -30 -42 -30 -9 0 -40 -9 -69 -21 -50
-19 -54 -20 -81 -4 -62 37 -79 -22 -24 -85 61 -72 84 -120 89 -191 8 -98 17
-109 87 -109 32 0 73 -3 91 -6 31 -7 32 -7 25 -51 -5 -35 -3 -49 11 -64 16
-18 16 -19 -3 -19 -33 0 -50 -31 -55 -100 -4 -48 -12 -75 -31 -103 -27 -40
-28 -90 -2 -132 7 -12 9 -31 4 -48 -14 -50 9 -96 93 -188 67 -72 87 -88 117
-92 21 -2 62 -16 92 -31 52 -24 62 -25 170 -20 63 2 129 7 146 9 29 3 33 1 33
-20 0 -13 7 -28 16 -33 15 -8 15 -16 4 -76 -13 -61 -16 -66 -40 -66 -44 0 -90
-71 -106 -163 -9 -53 5 -64 90 -72 61 -5 88 -2 167 19 52 14 114 30 138 36 34
9 62 30 131 98 71 71 90 97 105 141 10 30 31 75 46 100 16 25 29 51 29 58 0 7
19 17 42 24 52 14 108 69 108 107 0 43 40 89 98 113 29 12 73 35 99 52 38 26
57 31 103 32 50 0 64 -5 116 -41 76 -52 161 -99 197 -108 21 -5 33 -1 51 17
l24 24 99 -72 c55 -40 109 -75 120 -79 12 -4 25 -23 34 -49 8 -25 35 -65 68
-99 44 -47 60 -58 86 -58 34 0 65 25 65 53 0 13 11 11 67 -14 36 -17 77 -32
90 -33 24 -3 147 -133 163 -173 5 -12 16 -77 24 -145 8 -68 20 -136 26 -153 7
-16 16 -70 21 -120 l8 -90 45 -40 c41 -37 46 -46 60 -120 10 -50 23 -85 34
-93 10 -8 21 -38 28 -79 10 -60 9 -70 -7 -97 -34 -56 -14 -163 32 -177 117
-34 175 -54 182 -63 4 -6 5 -38 1 -72 -5 -54 -3 -63 18 -87 16 -19 36 -29 67
-32 53 -7 56 -8 117 -65 28 -25 66 -77 89 -120 29 -54 46 -76 62 -78 15 -2 26
-14 33 -37 6 -18 33 -53 59 -78 39 -37 58 -47 97 -52 134 -17 174 -38 174 -90
0 -31 28 -65 54 -65 34 0 76 -61 108 -155 15 -44 33 -83 40 -87 7 -3 50 -18
96 -32 130 -41 192 -94 192 -166 0 -29 78 -178 102 -194 13 -8 37 -18 53 -22
59 -14 103 -43 128 -86 14 -24 47 -65 74 -93 43 -45 58 -53 155 -83 58 -19
116 -41 128 -49 12 -9 33 -39 45 -68 41 -93 91 -113 180 -75 78 34 114 35 170
7 72 -36 183 -70 208 -64 81 21 73 24 144 -49 43 -45 76 -90 94 -131 16 -35
49 -85 74 -112 42 -45 46 -52 39 -85 -8 -45 11 -77 61 -100 40 -20 85 -16 143
11 31 15 33 15 71 -20 21 -19 48 -38 60 -42 35 -11 29 -21 -42 -78 -24 -19
-28 -30 -30 -82 -2 -55 0 -60 20 -63 12 -2 45 9 75 24 44 23 71 29 161 34 90
6 113 11 139 30 34 25 36 24 67 -45 11 -22 37 -71 60 -110 47 -79 50 -104 20
-159 -21 -39 -21 -41 -4 -104 16 -58 22 -67 63 -93 25 -16 59 -29 74 -29 18 0
28 -5 28 -14 0 -27 49 -73 106 -100 31 -15 71 -38 89 -51 17 -14 41 -25 53
-25 11 0 44 22 74 49 l52 48 38 -25 c54 -35 105 -144 117 -250 4 -43 16 -90
25 -104 9 -13 23 -49 32 -79 22 -74 75 -176 118 -228 41 -49 43 -55 50 -171 3
-52 15 -116 30 -163 15 -44 26 -101 26 -132 0 -48 3 -56 31 -75 40 -29 52 -63
44 -123 -10 -68 -56 -121 -99 -114 -25 4 -42 -3 -83 -34 -29 -21 -59 -39 -68
-39 -64 0 -71 -55 -19 -140 l36 -58 -32 -73 c-34 -78 -65 -118 -115 -149 -16
-10 -44 -43 -62 -72 -31 -52 -32 -55 -28 -148 6 -116 14 -166 29 -179 14 -11
170 -31 248 -31 65 0 142 26 191 63 37 28 107 156 107 195 0 30 60 123 93 145
12 8 38 18 57 22 50 10 92 38 115 77 18 30 20 52 21 223 0 105 4 199 7 210 12
32 119 103 221 146 93 39 97 39 127 23 27 -14 38 -14 78 -3 60 16 78 32 86 77
3 20 8 45 11 54 3 9 -8 31 -25 50 -39 44 -45 75 -26 120 20 48 19 87 -2 110
-15 17 -15 21 0 54 21 43 21 67 2 103 -20 40 -67 77 -147 116 -67 34 -88 50
-208 172 -53 53 -72 65 -131 83 -39 12 -69 27 -69 35 0 7 25 43 56 81 70 85
84 117 84 191 0 61 9 82 61 138 15 17 46 73 68 125 39 91 45 99 153 202 62 59
117 107 122 108 4 0 23 -12 40 -27 l32 -28 -56 -20 c-47 -17 -55 -24 -58 -48
-3 -24 2 -30 40 -47 24 -11 56 -20 73 -20 16 0 52 -11 80 -24 134 -64 172 -76
239 -76 36 0 86 5 110 12 90 24 120 -26 196 -320 22 -84 234 -272 309 -272 31
0 80 48 91 88 5 20 17 75 25 122 10 52 30 112 52 155 21 41 36 86 37 109 1 35
-5 43 -61 95 -34 31 -86 94 -116 141 -68 107 -157 192 -222 210 -41 12 -49 18
-66 57 -16 39 -26 47 -91 77 -40 18 -143 68 -228 109 -152 75 -157 78 -237
166 -91 98 -184 158 -283 181 -30 7 -95 31 -145 53 -49 22 -145 61 -212 88
-159 63 -180 74 -228 119 -22 21 -78 54 -125 75 -47 21 -99 48 -115 60 -32 24
-105 133 -105 157 0 25 40 78 66 88 45 17 154 120 154 145 0 12 9 30 20 40 11
10 20 24 20 30 0 44 -133 139 -208 150 -58 8 -152 -24 -194 -65 l-27 -27 -36
24 c-49 33 -94 39 -151 19 -62 -21 -154 -22 -154 -1 0 23 -37 37 -83 30 -73
-11 -204 31 -284 91 -18 14 -55 32 -82 40 -47 16 -50 20 -76 80 -32 74 -82
124 -190 187 -97 56 -120 80 -145 148 -24 67 -44 84 -120 104 -75 20 -139 95
-154 180 -4 22 -30 86 -57 142 -32 66 -52 123 -58 165 -11 79 -55 234 -87 311
-14 33 -36 90 -50 128 -13 37 -31 80 -39 96 -8 15 -15 49 -15 75 0 26 -5 59
-11 75 -14 38 -66 91 -114 115 -22 12 -79 51 -126 88 -47 37 -99 75 -115 83
-16 8 -71 50 -123 92 -90 72 -141 104 -221 135 -41 16 -249 190 -331 276 -50
53 -59 70 -92 171 -27 80 -37 129 -37 175 0 44 -9 88 -30 148 -33 91 -36 127
-19 195 11 42 12 44 31 31 11 -8 28 -12 37 -9 34 12 70 56 76 94 4 24 12 39
21 39 22 0 47 47 40 75 -9 36 -71 102 -132 141 l-52 33 1 83 c1 61 -3 91 -16
113 -21 37 -22 94 -2 159 8 27 15 64 15 82 0 27 5 34 30 42 16 6 50 25 75 42
l46 31 11 -31 c15 -44 41 -51 113 -30 124 37 217 83 274 135 31 28 77 66 102
84 32 22 49 42 53 62 7 37 22 37 123 3 43 -14 106 -28 141 -31 60 -6 64 -5 95
25 46 45 85 50 120 16 21 -19 26 -29 18 -37 -25 -25 -12 -64 29 -91 22 -14 46
-26 54 -26 8 0 27 -5 40 -12 38 -17 66 12 66 66 0 58 -57 174 -101 205 -19 14
-57 45 -85 69 l-51 44 -5 75 c-5 79 -14 93 -55 93 -36 0 -27 26 21 59 54 37
86 76 86 105 0 13 -26 46 -65 85 -61 59 -68 63 -100 58 -28 -5 -37 -2 -45 13
-19 35 -12 57 22 71 18 7 51 32 73 55 30 31 52 44 85 51 54 10 69 39 54 100
-9 37 -11 38 -104 69 -61 21 -116 33 -155 33 -66 1 -193 19 -323 46 -46 9 -97
15 -114 13 -21 -4 -53 6 -107 32 -112 55 -205 83 -247 76 -37 -8 -68 8 -131
67 -31 29 -32 31 -18 65 31 73 14 103 -63 112 -42 5 -47 8 -54 37 -6 24 -4 41
7 62 18 36 20 122 3 139 -19 19 -45 14 -153 -26z"/>
<path d="M3853 5425 c-12 -8 -24 -30 -28 -48 -4 -17 -19 -49 -33 -70 -24 -35
-28 -38 -62 -32 -30 5 -39 2 -60 -21 -14 -14 -48 -41 -76 -59 -28 -18 -68 -51
-89 -74 -21 -22 -47 -43 -59 -47 -12 -4 -41 -21 -66 -39 -52 -36 -139 -75
-170 -75 -12 0 -32 13 -46 29 -16 19 -36 31 -57 33 -27 3 -33 8 -40 41 -5 21
-18 42 -30 49 -18 9 -24 7 -44 -16 -20 -23 -23 -38 -23 -103 0 -73 -1 -76 -35
-107 -39 -36 -43 -63 -24 -146 6 -25 10 -60 10 -78 -1 -31 1 -33 31 -31 44 3
111 -33 127 -67 7 -15 26 -45 42 -65 27 -34 29 -43 27 -106 -3 -68 -3 -68 27
-77 l30 -9 -1 -119 c-1 -114 -2 -122 -27 -153 -20 -25 -26 -45 -29 -91 -3 -79
3 -88 63 -81 37 5 49 3 49 -7 0 -8 -6 -16 -13 -19 -26 -10 -40 -90 -42 -231
l-2 -139 -33 -27 c-31 -25 -32 -28 -26 -81 8 -70 9 -104 1 -155 -4 -24 -2 -50
4 -61 8 -16 5 -27 -14 -56 -33 -47 -32 -73 3 -91 27 -14 28 -18 24 -68 -9
-129 -9 -133 15 -136 15 -2 29 7 45 28 20 28 65 60 83 60 3 0 5 -8 5 -18 0
-40 32 -109 55 -122 34 -18 175 -8 250 19 100 35 201 156 162 193 -11 10 -10
21 8 68 l21 55 40 -3 c26 -2 45 2 52 11 20 24 69 9 83 -25 14 -35 88 -88 123
-88 27 0 32 5 101 115 l45 70 0 108 c0 94 3 114 25 156 23 46 24 59 23 198 -2
331 -2 319 22 374 25 60 22 109 -8 143 -32 35 -51 106 -38 141 17 48 80 127
146 184 48 42 60 58 60 82 0 31 -35 73 -71 84 -10 4 -21 16 -23 28 -2 12 -11
60 -20 107 -39 222 -42 227 -122 286 -26 19 -28 24 -16 43 21 35 15 79 -13 97
-22 14 -25 23 -25 75 0 58 -2 61 -48 109 -27 28 -57 50 -68 50 -11 0 -37 -9
-58 -21 -35 -19 -40 -19 -48 -5 -10 18 -59 46 -80 46 -8 0 -23 -7 -35 -15z"/>
<path d="M9190 2079 c-58 -22 -141 -58 -184 -79 l-79 -39 -25 19 c-13 11 -36
20 -49 20 -13 0 -43 5 -67 11 -37 9 -47 8 -77 -10 -19 -12 -40 -21 -47 -21 -7
0 -77 -31 -155 -69 -128 -62 -150 -70 -227 -77 -47 -4 -124 -7 -172 -6 -92 3
-109 -2 -184 -53 -20 -14 -50 -25 -67 -25 -34 0 -153 57 -206 99 -81 63 -96
71 -138 71 -48 0 -63 17 -63 70 0 83 -57 96 -116 26 -27 -32 -46 -45 -73 -50
-20 -3 -71 -29 -114 -57 -97 -63 -125 -62 -182 6 -21 26 -45 45 -56 45 -12 0
-39 -15 -62 -34 -23 -19 -58 -41 -78 -49 -53 -22 -73 -54 -87 -143 -8 -43 -17
-98 -22 -122 -8 -46 2 -171 19 -214 12 -32 40 -49 68 -42 16 4 24 -1 35 -23
13 -27 15 -28 118 -34 135 -9 161 -17 196 -59 39 -47 41 -48 104 -56 66 -8 74
-11 140 -68 35 -30 88 -59 158 -88 88 -36 109 -49 125 -77 14 -23 38 -41 74
-57 29 -13 59 -24 65 -24 6 0 26 -11 43 -25 47 -35 113 -49 208 -42 79 5 83 4
151 -31 53 -28 84 -54 132 -112 37 -44 68 -92 75 -115 24 -87 22 -85 92 -85
l63 0 71 -64 c88 -79 127 -94 178 -70 34 16 39 16 71 0 48 -23 86 -20 112 7
19 20 22 35 22 98 0 55 5 83 20 109 10 19 27 51 37 71 9 19 39 50 65 68 26 19
48 41 48 51 0 29 -50 109 -72 115 -16 6 -19 12 -13 33 3 15 9 50 12 77 6 55 9
50 -75 122 -27 23 -34 38 -39 79 -5 47 -2 57 31 111 20 32 36 64 36 70 0 6 6
18 14 25 7 8 18 43 24 78 10 55 18 71 55 110 25 25 62 82 85 130 22 47 59 116
81 155 23 38 41 83 41 98 0 19 13 44 40 74 44 51 49 72 22 96 -29 27 -89 20
-202 -24z"/>
</g>
</svg>
