<?xml version="1.0" standalone="no"?>
<!DOCTYPE svg PUBLIC "-//W3C//DTD SVG 20010904//EN"
 "http://www.w3.org/TR/2001/REC-SVG-20010904/DTD/svg10.dtd">
<svg version="1.0" xmlns="http://www.w3.org/2000/svg"
 width="1280.000000pt" height="1280.000000pt" viewBox="0 0 1280.000000 1280.000000"
 preserveAspectRatio="xMidYMid meet">
<metadata>
Created by potrace 1.15, written by Peter Selinger 2001-2017
</metadata>
<g transform="translate(0.000000,1280.000000) scale(0.100000,-0.100000)"
fill="#000000" stroke="none">
<path d="M5861 12249 c-13 -5 -50 -33 -81 -63 -44 -40 -71 -57 -117 -69 -33
-10 -71 -17 -84 -17 -55 0 -289 -74 -394 -126 -107 -51 -115 -58 -246 -191
-173 -175 -216 -223 -228 -255 -9 -24 2 -416 14 -503 3 -21 19 -62 34 -90 41
-71 65 -227 56 -354 -7 -95 -7 -97 27 -161 56 -108 96 -243 101 -345 5 -85 9
-98 61 -204 31 -62 52 -118 48 -125 -4 -6 -7 -121 -7 -256 -1 -269 -9 -334
-55 -460 -17 -46 -42 -135 -56 -199 -57 -264 -104 -512 -104 -548 -1 -21 -7
-56 -16 -78 -8 -22 -32 -104 -54 -182 -26 -89 -53 -163 -75 -199 -19 -32 -35
-71 -35 -88 0 -72 23 -212 37 -223 11 -8 12 -16 4 -31 -6 -11 -26 -86 -46
-168 -20 -82 -76 -270 -125 -419 -49 -148 -103 -328 -120 -400 -34 -144 -90
-311 -122 -365 -12 -19 -54 -69 -93 -110 -39 -41 -91 -105 -115 -142 -30 -44
-54 -69 -70 -73 -54 -13 -108 -46 -119 -73 -6 -15 -15 -97 -21 -182 -16 -244
-26 -312 -53 -367 -47 -92 -87 -252 -87 -348 0 -64 -7 -109 -25 -169 -13 -44
-31 -123 -39 -175 -8 -52 -20 -99 -25 -104 -6 -6 -11 -28 -11 -49 0 -71 74
-98 326 -123 l69 -7 0 -39 c0 -31 8 -46 37 -76 30 -32 39 -51 52 -115 23 -111
21 -230 -5 -306 -20 -58 -20 -64 -5 -87 12 -18 25 -25 49 -25 35 0 235 94 421
199 60 33 101 52 92 42 -34 -37 -21 -65 65 -143 44 -40 87 -85 95 -100 11 -21
14 -79 14 -263 l0 -236 -64 -172 c-97 -263 -99 -271 -93 -346 3 -36 11 -83 17
-103 13 -45 54 -96 88 -109 22 -9 24 -13 18 -52 -4 -23 -16 -71 -27 -106 -18
-60 -18 -69 -5 -145 8 -44 18 -115 21 -156 3 -41 13 -115 21 -165 14 -84 13
-96 -5 -185 -11 -52 -27 -117 -35 -145 -8 -27 -24 -84 -36 -125 -12 -41 -41
-124 -65 -185 -23 -60 -50 -135 -59 -167 -9 -31 -31 -74 -49 -95 -53 -64 -111
-186 -103 -218 10 -40 62 -57 176 -59 l95 -1 79 54 c43 29 103 64 133 77 l54
24 43 -25 c67 -39 105 -34 158 21 l44 45 35 -20 c72 -42 241 -53 318 -20 l33
14 52 -57 c32 -36 59 -58 73 -58 11 0 45 11 75 25 29 14 60 25 68 25 8 0 56
-18 106 -39 49 -22 128 -47 175 -56 152 -29 172 -35 220 -70 51 -38 108 -47
144 -21 11 7 90 56 175 108 85 52 193 120 240 150 147 96 186 112 260 109 36
-2 80 -4 99 -5 49 -2 58 18 43 101 -7 37 -19 106 -27 153 -9 47 -22 112 -30
145 -7 33 -17 92 -20 130 -9 93 -59 256 -91 294 l-25 30 30 102 c17 60 43 121
60 146 28 39 31 51 31 118 l0 75 83 91 c229 252 244 276 261 392 8 53 27 67
90 67 23 0 40 9 63 32 16 18 33 41 36 50 5 15 9 15 44 -3 58 -30 106 -25 143
13 33 35 34 39 50 138 6 36 22 86 36 112 13 26 24 57 24 68 0 11 16 37 35 59
37 41 45 80 20 101 -14 12 -43 7 -222 -40 -26 -6 -38 -3 -67 16 -37 25 -79 89
-90 136 -3 14 -25 49 -48 76 -24 28 -65 88 -92 133 -56 95 -80 125 -117 144
l-26 14 14 73 c39 198 52 238 88 280 28 34 35 50 35 85 0 30 -5 45 -15 49 -26
10 -17 39 32 105 25 35 72 106 104 159 62 101 73 112 138 130 22 6 53 21 68
34 23 20 28 34 33 93 5 53 16 88 44 142 20 39 41 90 46 114 5 23 12 54 16 70
4 15 -2 62 -12 108 -24 105 -49 129 -134 129 -31 0 -74 -7 -95 -16 -21 -8 -43
-13 -50 -10 -7 2 -14 32 -17 71 -7 85 -36 119 -120 142 -32 9 -58 22 -58 28 0
7 7 30 16 50 27 65 13 99 -74 182 l-76 72 12 59 c25 119 21 133 -62 220 -47
49 -78 91 -86 117 -20 65 -54 92 -132 109 -20 5 -30 14 -34 34 -4 15 -13 38
-21 51 l-15 24 48 -6 c160 -21 207 -20 277 7 56 22 84 26 168 26 55 0 143 -5
195 -12 70 -8 103 -8 132 0 66 20 79 43 97 177 19 141 47 212 118 300 63 77
66 88 78 220 5 60 12 134 15 163 4 32 1 65 -6 83 -16 37 -99 113 -167 151
l-53 30 0 96 c0 54 4 102 8 108 11 16 88 44 122 44 46 0 78 17 102 55 17 27
34 38 67 47 25 6 62 27 83 46 31 28 38 41 38 71 -1 48 -28 106 -77 163 -27 31
-45 64 -53 97 -12 50 -12 52 19 86 28 32 31 42 31 100 0 56 -3 66 -25 82 l-24
18 30 85 c33 94 33 77 -8 334 -14 90 -14 101 1 133 21 44 20 94 -3 191 -25
104 -43 137 -98 175 l-45 32 54 5 c84 8 133 52 158 140 5 19 23 55 39 78 25
38 27 47 18 73 -10 26 -8 32 20 61 17 18 61 71 98 118 l66 85 107 33 c59 19
126 33 149 33 48 0 73 23 94 87 7 20 32 62 57 92 24 30 56 79 70 108 15 29 33
52 42 52 21 0 69 31 109 71 18 19 51 72 73 118 33 72 40 98 45 171 5 80 4 90
-17 118 -57 76 -249 202 -335 218 -25 4 -48 1 -76 -12 -50 -22 -84 -12 -116
35 -27 40 -30 106 -11 256 9 80 9 100 -5 137 -8 24 -17 62 -20 85 -3 23 -16
67 -30 97 -24 52 -29 56 -59 56 -26 0 -40 -8 -64 -36 -29 -35 -33 -37 -107
-42 l-77 -5 0 42 c0 45 -33 91 -65 91 -29 0 -90 -38 -119 -75 -26 -34 -31 -36
-65 -30 -20 4 -65 18 -100 32 -57 23 -71 25 -146 18 l-83 -7 -54 56 c-67 69
-87 71 -139 14 -50 -55 -70 -98 -78 -169 -5 -36 -15 -67 -27 -80 -24 -26 -92
-61 -165 -84 -52 -16 -59 -16 -111 -1 -65 19 -190 21 -237 5 -30 -10 -41 -7
-125 35 -50 25 -125 53 -166 62 -84 19 -141 12 -257 -31 -71 -27 -71 -27 -75
45 -3 43 -5 45 -36 48 -26 3 -41 -4 -72 -32 -21 -19 -53 -42 -70 -51 -17 -9
-65 -38 -107 -65 -43 -29 -87 -50 -102 -50 -40 0 -126 27 -152 49 l-22 18 24
74 c17 52 36 87 65 119 73 81 154 209 154 246 0 58 -56 76 -167 55 l-43 -8 0
76 c-1 44 -6 83 -13 92 -16 21 -56 29 -86 18z m-1279 -7784 c15 -42 22 -79 20
-108 l-4 -45 -59 -11 c-39 -8 -71 -22 -92 -40 -18 -16 -48 -35 -68 -44 -20 -8
-47 -26 -60 -41 l-24 -26 -83 25 c-45 14 -82 27 -82 28 0 2 28 1 63 -1 56 -4
71 0 125 27 66 33 85 58 98 126 4 22 13 49 20 60 16 23 18 73 4 109 -8 22 -5
29 23 52 l31 26 32 -36 c18 -21 43 -66 56 -101z"/>
</g>
</svg>
