<?xml version="1.0" standalone="no"?>
<!DOCTYPE svg PUBLIC "-//W3C//DTD SVG 20010904//EN"
 "http://www.w3.org/TR/2001/REC-SVG-20010904/DTD/svg10.dtd">
<svg version="1.0" xmlns="http://www.w3.org/2000/svg"
 width="1280.000000pt" height="1280.000000pt" viewBox="0 0 1280.000000 1280.000000"
 preserveAspectRatio="xMidYMid meet">
<metadata>
Created by potrace 1.15, written by Peter Selinger 2001-2017
</metadata>
<g transform="translate(0.000000,1280.000000) scale(0.100000,-0.100000)"
fill="#000000" stroke="none">
<path d="M1990 10731 c-19 -4 -46 -13 -60 -21 -13 -7 -61 -14 -107 -15 -105
-4 -125 -16 -150 -92 l-19 -58 -80 -32 c-88 -35 -109 -58 -92 -102 5 -14 24
-38 42 -53 19 -15 36 -37 39 -48 7 -25 5 -25 -43 5 -50 31 -70 31 -100 0 -30
-32 -142 -105 -161 -105 -8 0 -20 -5 -27 -12 -8 -8 -15 -8 -24 -1 -35 28 -86
34 -170 22 -110 -16 -138 -36 -138 -94 0 -53 -9 -59 -95 -70 -33 -4 -65 -11
-72 -17 -7 -5 -20 -33 -29 -61 -9 -28 -30 -75 -46 -103 -20 -38 -28 -66 -28
-104 0 -71 12 -90 58 -90 33 0 39 -4 50 -32 9 -25 9 -37 -4 -64 -33 -69 4
-105 71 -70 27 14 30 14 37 -2 13 -34 8 -65 -22 -126 -54 -109 -21 -128 112
-62 51 25 102 46 115 46 l22 0 -20 -47 c-11 -27 -27 -62 -36 -80 -13 -29 -13
-35 4 -65 23 -43 73 -88 96 -88 32 0 13 -22 -33 -37 -106 -35 -109 -98 -7
-134 l37 -13 -54 -56 c-29 -30 -59 -65 -65 -77 -6 -12 -11 -71 -11 -133 0
-145 24 -200 89 -200 20 0 62 43 114 115 36 51 36 51 179 99 79 26 160 58 181
72 l37 24 10 -25 c5 -14 17 -25 28 -25 34 0 55 -24 48 -56 -5 -22 -19 -36 -56
-57 -55 -31 -100 -79 -100 -108 0 -10 13 -33 29 -51 28 -32 32 -33 109 -34 43
0 84 -4 90 -8 15 -9 49 9 88 46 20 19 34 26 38 19 12 -19 44 -12 99 19 54 30
87 38 87 20 0 -24 123 -62 197 -59 32 1 81 -2 110 -6 72 -11 135 19 157 76 9
22 16 48 16 59 0 23 6 24 40 5 14 -8 41 -14 61 -15 19 0 59 -11 88 -26 65 -31
91 -28 111 11 8 17 15 31 15 32 1 1 27 -7 59 -19 47 -18 62 -19 77 -9 29 17
39 6 39 -43 0 -28 6 -48 16 -57 17 -14 15 -39 -10 -107 -13 -35 -14 -51 -6
-83 13 -48 28 -55 86 -42 34 8 53 7 91 -7 70 -24 143 -59 143 -69 0 -4 -13
-26 -28 -47 -16 -21 -37 -61 -48 -87 -13 -34 -32 -58 -63 -80 -24 -18 -47 -42
-52 -54 -5 -13 -20 -24 -41 -28 -18 -4 -52 -23 -75 -41 -25 -21 -52 -34 -70
-34 -33 0 -50 -18 -78 -80 -11 -25 -27 -51 -36 -57 -10 -7 -31 -35 -48 -63
-26 -42 -36 -50 -60 -50 -29 0 -61 -22 -61 -42 0 -5 23 -35 50 -66 28 -31 55
-72 60 -92 6 -19 14 -41 19 -49 6 -9 4 -19 -6 -29 -11 -12 -13 -29 -8 -81 5
-55 3 -74 -15 -114 -23 -52 -21 -98 7 -129 13 -15 12 -20 -7 -46 -19 -26 -20
-34 -11 -69 6 -22 20 -52 31 -66 l21 -26 -53 -33 c-29 -18 -66 -40 -82 -48
-35 -18 -76 -76 -76 -108 0 -41 31 -94 64 -107 32 -13 66 -68 66 -104 0 -9
-11 -28 -25 -41 -17 -16 -25 -34 -25 -58 0 -20 -15 -62 -35 -102 -20 -37 -39
-80 -44 -96 -7 -27 -12 -29 -82 -39 -48 -7 -96 -23 -138 -44 -50 -27 -67 -31
-85 -23 -42 20 -105 35 -120 29 -26 -10 -18 -51 17 -98 18 -24 38 -56 44 -71
7 -14 34 -38 61 -54 l50 -28 7 -80 c7 -86 14 -105 51 -145 13 -14 24 -35 24
-47 0 -11 11 -31 25 -44 17 -16 25 -34 25 -56 0 -51 39 -67 101 -40 27 12 69
-37 69 -82 0 -34 -4 -40 -35 -55 -41 -19 -75 -70 -75 -111 0 -29 -64 -136
-126 -209 -18 -21 -35 -54 -38 -73 -4 -19 -20 -61 -35 -94 -35 -73 -31 -100
18 -139 41 -33 52 -52 76 -133 18 -58 52 -106 91 -126 12 -6 44 -9 77 -5 l55
6 -9 -39 c-6 -22 -13 -49 -16 -61 -3 -12 -13 -29 -22 -37 -16 -15 -19 -14 -36
4 -28 31 -60 25 -83 -14 -13 -21 -33 -38 -55 -45 -26 -9 -38 -21 -52 -54 -35
-83 -39 -92 -61 -117 -12 -14 -32 -43 -43 -65 -11 -22 -32 -53 -46 -69 -14
-16 -30 -47 -37 -68 -6 -21 -19 -45 -30 -54 -26 -24 -22 -57 14 -116 28 -45
32 -62 35 -130 1 -43 7 -86 12 -96 5 -9 12 -45 16 -80 5 -42 12 -65 24 -71 9
-5 97 -10 196 -12 145 -3 187 -6 215 -20 20 -10 54 -21 75 -24 22 -4 45 -11
50 -15 6 -4 21 -10 35 -13 14 -4 64 -42 110 -86 47 -44 102 -87 123 -97 20 -9
37 -22 37 -28 0 -6 5 -42 10 -80 10 -63 9 -71 -10 -91 -31 -33 -24 -59 31
-119 45 -50 55 -56 90 -56 l39 0 -2 -83 c-3 -71 0 -86 20 -114 12 -17 22 -39
22 -50 1 -10 45 -64 99 -120 101 -106 129 -121 152 -85 11 17 13 17 38 -7 14
-14 40 -45 57 -69 39 -54 54 -64 134 -91 l65 -21 85 23 c121 34 200 92 200
148 0 6 15 32 33 58 19 26 37 58 40 71 14 55 44 86 120 124 42 22 94 57 117
78 39 38 42 39 65 24 27 -18 76 -21 103 -6 9 5 38 18 64 29 28 12 55 32 69 53
12 18 49 55 81 81 33 27 64 59 69 71 10 20 17 22 132 23 253 4 345 9 358 19
32 26 76 26 128 0 28 -14 67 -26 87 -26 21 0 46 -7 56 -17 29 -26 196 -20 256
9 48 23 88 34 174 51 54 10 59 9 127 -23 39 -19 71 -38 71 -42 0 -4 5 -8 12
-8 6 0 19 -7 28 -15 9 -8 31 -18 48 -21 27 -5 36 -2 59 25 16 17 39 52 53 78
19 36 34 49 65 61 55 19 96 17 114 -6 12 -15 32 -21 80 -24 55 -4 67 -8 86
-32 18 -22 29 -27 55 -24 27 2 43 14 78 58 24 30 63 77 86 104 70 83 94 125
106 184 6 31 15 75 21 97 6 22 14 59 18 82 6 33 18 51 55 85 62 55 147 118
159 118 15 0 58 51 69 82 10 29 46 50 118 70 98 26 119 30 170 29 86 -2 225
30 328 75 42 18 52 28 52 47 0 28 -37 65 -76 76 -15 4 -29 12 -31 17 -2 6 21
40 50 77 60 76 79 123 71 182 -5 34 -2 44 20 67 15 14 40 53 56 87 17 34 36
61 44 61 8 0 28 13 45 29 27 26 31 35 31 83 0 48 4 59 35 95 20 23 52 52 73
64 20 13 58 40 84 61 26 22 69 47 95 56 64 23 110 52 158 102 22 23 61 52 87
66 110 56 114 109 16 241 -46 63 -55 68 -141 83 -80 14 -109 35 -144 103 -29
58 -40 97 -54 207 -6 41 -22 109 -36 150 -41 120 -38 138 37 260 71 114 79
130 105 205 12 35 36 68 77 109 67 66 71 73 87 172 12 68 37 114 62 114 24 0
73 50 115 118 26 40 63 93 84 117 25 29 45 67 59 115 29 95 106 209 141 210
52 0 163 29 184 48 11 10 33 26 49 35 49 31 30 72 -57 126 -20 13 -36 31 -36
40 0 10 43 60 95 112 100 98 194 159 248 159 35 0 64 15 99 51 15 16 40 31 55
35 16 3 82 24 148 47 112 38 128 40 245 43 150 2 257 18 283 41 10 10 28 38
39 63 34 75 66 109 167 175 53 34 108 73 123 86 16 14 62 35 103 48 42 14 78
28 81 33 3 4 14 8 24 8 17 0 100 83 100 101 0 5 22 9 50 9 72 0 92 14 146 97
26 41 56 79 66 84 28 15 105 125 113 160 7 33 -5 72 -42 131 -13 21 -24 47
-26 58 -2 11 -6 23 -10 26 -4 4 -7 27 -7 51 0 42 1 43 33 43 41 0 50 7 76 55
37 70 24 105 -40 105 -44 0 -57 14 -54 60 4 65 -35 98 -78 65 -16 -12 -25 -10
-65 12 -52 28 -107 27 -193 -2 -49 -17 -115 -77 -121 -110 -3 -15 -10 -19 -28
-17 -107 13 -140 21 -175 43 -99 62 -178 82 -237 59 -18 -7 -52 -31 -74 -53
l-42 -39 -33 56 c-26 44 -45 62 -86 83 -59 29 -152 37 -194 16 -42 -21 -118
-53 -125 -53 -3 0 -21 13 -39 28 -28 26 -31 31 -19 47 21 29 17 78 -11 116
-13 19 -29 43 -34 54 -14 31 -62 75 -82 75 -10 0 -34 -7 -53 -16 l-34 -17 -57
61 -57 62 -67 -1 c-73 -1 -126 15 -192 57 -49 31 -116 42 -148 24 -20 -10 -22
-17 -18 -68 3 -31 9 -72 12 -91 7 -30 6 -33 -12 -27 -11 4 -53 2 -93 -4 -50
-7 -77 -7 -84 0 -19 19 -53 11 -71 -17 -17 -25 -18 -25 -28 -7 -20 38 -51 64
-76 64 -14 0 -57 -9 -96 -20 -89 -24 -134 -14 -185 44 -19 21 -58 49 -87 62
-45 20 -65 23 -170 20 -112 -2 -119 -3 -129 -25 l-12 -23 -18 28 c-10 16 -22
31 -25 34 -12 9 -54 93 -69 140 -12 35 -20 46 -39 48 -14 2 -28 -3 -33 -12
-14 -25 -206 -11 -273 19 -28 13 -69 29 -92 36 -36 12 -42 18 -54 59 -12 37
-19 46 -40 48 -22 3 -29 -3 -40 -27 -29 -66 -48 -23 -25 58 23 82 21 117 -10
148 -25 24 -28 25 -110 18 -83 -7 -85 -6 -105 19 -13 17 -30 26 -49 26 -16 0
-42 11 -60 26 -25 22 -38 26 -70 21 -38 -5 -166 -48 -204 -68 -10 -6 -42 -10
-70 -8 -28 1 -67 -1 -88 -5 -33 -7 -42 -4 -90 32 -69 52 -210 102 -288 102
-43 0 -69 6 -104 26 l-46 26 -53 -17 c-28 -10 -62 -22 -74 -28 -16 -7 -26 -7
-36 1 -20 17 -196 14 -221 -4 -11 -8 -28 -14 -36 -14 -18 0 -57 38 -74 72 -41
83 -226 78 -317 -8 -21 -21 -30 -23 -51 -15 -15 5 -29 15 -33 20 -10 18 -54
12 -85 -11 -23 -17 -50 -23 -137 -29 -59 -4 -130 -13 -158 -19 -55 -13 -234
-6 -263 10 -9 5 -42 17 -72 26 -30 9 -61 21 -68 27 -7 6 -59 11 -115 12 -87 1
-110 5 -157 27 -52 24 -118 37 -355 68 -80 11 -117 31 -130 70 -7 21 -76 60
-107 60 -16 0 -49 -21 -92 -59 -86 -76 -124 -86 -279 -70 -81 8 -189 8 -408
-1 -339 -13 -344 -12 -479 53 -30 15 -66 37 -80 49 -30 28 -106 78 -118 78 -4
0 -34 14 -67 31 -64 33 -147 45 -215 30z"/>
<path d="M12285 6421 c-22 -10 -66 -21 -99 -25 -81 -9 -93 -18 -112 -82 -16
-55 -16 -56 7 -80 17 -18 33 -24 63 -24 63 0 107 -16 151 -55 22 -19 46 -35
53 -35 7 0 37 -15 66 -34 66 -42 90 -50 115 -36 29 15 71 80 71 109 0 27 -35
90 -62 109 -10 7 -18 20 -18 29 0 8 -8 28 -17 44 -13 21 -25 29 -46 29 -20 0
-43 12 -68 35 -45 40 -50 41 -104 16z"/>
<path d="M11295 6246 c-89 -41 -239 -160 -276 -218 -17 -25 -44 -46 -91 -68
-74 -35 -105 -61 -118 -95 -15 -39 5 -97 52 -153 16 -18 28 -37 28 -42 0 -6
15 -10 33 -10 24 0 44 12 81 46 49 45 93 70 105 58 8 -8 6 -115 -3 -140 -13
-35 37 -62 125 -70 76 -6 129 -20 129 -34 0 -5 12 -22 26 -39 37 -44 70 -41
125 10 24 23 75 69 113 103 86 76 116 134 116 223 0 55 3 64 26 82 15 12 32
21 39 21 19 0 34 51 23 80 -5 13 -20 39 -34 57 -30 40 -67 43 -131 12 -37 -18
-47 -19 -80 -9 -61 20 -66 27 -60 91 8 70 -3 86 -68 99 -100 20 -109 20 -160
-4z"/>
<path d="M10160 5373 c-8 -4 -27 -20 -42 -37 -24 -27 -30 -29 -45 -18 -68 47
-84 42 -130 -44 -40 -76 -45 -81 -92 -94 -58 -15 -67 -52 -26 -112 14 -20 25
-48 25 -61 0 -37 20 -85 37 -91 28 -11 80 5 114 36 88 77 109 99 109 114 0 23
28 72 62 107 35 37 88 125 88 147 0 32 -65 67 -100 53z"/>
</g>
</svg>
