<?xml version="1.0" standalone="no"?>
<!DOCTYPE svg PUBLIC "-//W3C//DTD SVG 20010904//EN"
 "http://www.w3.org/TR/2001/REC-SVG-20010904/DTD/svg10.dtd">
<svg version="1.0" xmlns="http://www.w3.org/2000/svg"
 width="1280.000000pt" height="1280.000000pt" viewBox="0 0 1280.000000 1280.000000"
 preserveAspectRatio="xMidYMid meet">
<metadata>
Created by potrace 1.15, written by Peter Selinger 2001-2017
</metadata>
<g transform="translate(0.000000,1280.000000) scale(0.100000,-0.100000)"
fill="#000000" stroke="none">
<path d="M7180 10357 c-17 -9 -26 -22 -28 -44 -3 -29 -10 -34 -108 -79 -118
-54 -143 -75 -185 -154 -17 -30 -41 -71 -55 -90 -34 -46 -28 -93 21 -165 71
-102 83 -110 189 -113 87 -4 94 -2 123 22 22 18 43 26 70 26 21 0 49 7 62 17
23 15 25 15 38 -3 13 -17 11 -20 -17 -25 -48 -10 -60 -26 -60 -79 0 -50 -7
-80 -19 -80 -4 0 -17 18 -29 39 -29 52 -55 56 -155 29 -98 -26 -127 -43 -127
-73 0 -27 33 -72 60 -80 27 -9 18 -21 -40 -50 l-49 -25 -17 25 c-23 35 -47 39
-109 16 -31 -12 -66 -21 -78 -21 -13 0 -51 28 -96 70 -41 38 -81 72 -90 74
-49 15 -156 36 -181 36 -16 0 -41 -11 -57 -23 -15 -13 -73 -50 -128 -81 -55
-32 -115 -69 -132 -82 -27 -20 -59 -29 -169 -45 -74 -11 -156 -27 -182 -35
-43 -15 -47 -15 -59 2 -7 10 -13 27 -13 38 -1 34 -36 103 -62 120 -18 12 -32
13 -58 6 -19 -5 -61 -12 -92 -15 -68 -7 -90 -23 -126 -89 -27 -49 -28 -50
-111 -73 -102 -27 -196 -39 -204 -25 -4 5 9 30 29 55 47 61 45 103 -6 131 -51
27 -98 16 -160 -39 -35 -31 -68 -49 -108 -61 -103 -28 -142 -47 -167 -76 -28
-33 -32 -65 -12 -92 10 -14 11 -28 3 -58 -10 -37 -12 -38 -41 -32 -43 10 -132
6 -155 -6 -27 -14 -25 -46 5 -82 14 -16 25 -33 25 -37 0 -3 -25 -31 -55 -61
l-55 -54 -62 22 c-82 29 -103 28 -193 -8 -42 -16 -80 -30 -87 -30 -6 0 -28 16
-49 35 -22 19 -48 35 -60 35 -11 0 -29 5 -40 10 -17 9 -19 22 -19 105 0 52 -4
97 -10 100 -6 3 -26 1 -45 -6 -28 -10 -42 -11 -66 -2 -27 11 -38 9 -80 -12
-61 -31 -103 -31 -154 0 -22 14 -53 25 -68 25 -36 0 -81 -23 -101 -52 -19 -27
-21 -109 -3 -127 10 -10 9 -14 -3 -21 -77 -44 -111 -85 -125 -152 -4 -19 -13
-28 -35 -33 -48 -11 -86 -63 -99 -140 -10 -58 -10 -70 5 -92 18 -28 11 -28
179 -3 39 6 102 14 141 17 67 5 72 4 88 -18 9 -13 16 -26 16 -30 0 -4 -28 -17
-62 -29 -87 -31 -108 -46 -108 -74 0 -19 -7 -26 -28 -31 -15 -3 -43 -15 -61
-26 -36 -22 -37 -27 -15 -141 6 -33 4 -38 -24 -52 -16 -8 -40 -32 -53 -53 -32
-53 -146 -171 -195 -202 -66 -43 -244 -216 -244 -237 0 -32 -26 -60 -68 -72
-85 -26 -121 -90 -70 -126 l22 -16 -29 -31 c-17 -17 -56 -49 -87 -70 -32 -22
-58 -44 -58 -50 0 -15 -60 -47 -103 -55 -22 -3 -67 -24 -100 -45 -53 -35 -67
-39 -122 -39 -64 0 -80 -7 -108 -50 -9 -14 -33 -47 -52 -74 -42 -58 -43 -73
-10 -155 21 -51 24 -69 16 -94 -5 -18 -12 -50 -16 -72 -4 -22 -18 -60 -32 -84
-29 -49 -28 -108 3 -142 16 -18 16 -21 -11 -60 -15 -23 -45 -62 -68 -86 -51
-55 -253 -201 -328 -236 -43 -21 -71 -46 -122 -106 -37 -44 -81 -90 -99 -104
-18 -13 -70 -50 -115 -82 -63 -44 -83 -64 -83 -81 0 -13 14 -60 30 -106 l30
-82 -34 -36 c-31 -32 -91 -130 -154 -252 -60 -116 -31 -204 92 -287 96 -65
110 -107 56 -177 -88 -114 -90 -119 -90 -229 0 -114 -1 -116 -77 -154 -34 -17
-60 -21 -136 -21 -107 0 -131 -11 -161 -75 -20 -42 -15 -65 25 -117 25 -30 28
-40 19 -62 -13 -34 0 -66 41 -100 29 -24 39 -27 79 -23 25 3 107 13 182 21 75
8 147 20 159 27 13 6 73 53 133 103 61 50 145 114 186 141 84 58 120 102 120
151 0 46 -32 66 -97 62 l-48 -3 -5 72 c-4 54 -10 76 -23 85 -17 13 -17 16 3
63 41 99 55 117 131 174 62 47 90 62 150 76 80 20 224 72 286 104 21 11 60 38
87 60 l48 41 167 0 c138 0 176 -3 226 -20 93 -30 208 -60 231 -60 30 0 94 -28
99 -43 2 -7 5 -42 8 -78 4 -63 3 -66 -23 -81 -16 -9 -33 -31 -40 -52 -11 -33
-9 -40 18 -88 16 -29 32 -65 36 -80 3 -15 18 -35 32 -45 65 -46 82 -65 88 -97
6 -29 1 -43 -35 -93 -57 -81 -99 -178 -106 -243 -4 -35 -15 -66 -30 -86 -46
-61 -19 -123 63 -146 21 -5 76 -24 122 -40 82 -30 82 -30 82 -66 0 -22 -11
-53 -31 -83 -51 -81 -27 -141 63 -155 32 -6 41 -2 69 25 37 38 33 42 104 -93
26 -50 64 -108 83 -128 32 -33 36 -43 33 -82 -3 -47 16 -94 54 -136 12 -14 44
-61 70 -105 75 -125 115 -174 142 -175 6 0 30 16 54 36 44 37 59 34 59 -12 0
-75 104 -52 169 38 18 25 57 59 89 78 31 19 72 47 90 62 l33 28 52 -27 c61
-30 138 -53 185 -53 36 0 133 45 180 84 16 15 44 29 61 32 40 8 55 27 48 62
-6 28 -4 29 44 40 28 7 61 12 73 12 26 0 46 17 46 39 0 9 5 23 10 31 7 12 15
8 45 -24 29 -32 39 -37 62 -32 16 3 52 9 80 12 47 6 57 4 91 -20 22 -15 46
-24 54 -21 12 5 16 -6 21 -52 9 -86 47 -103 119 -51 l29 20 53 -26 c29 -14 64
-26 77 -26 13 0 49 -7 79 -15 104 -28 130 -15 130 66 0 56 6 71 56 136 19 25
34 51 34 59 0 9 11 14 34 14 44 0 98 20 166 61 80 49 96 62 108 86 15 28 15
130 1 173 -11 30 -10 34 17 56 16 13 37 23 47 24 56 1 177 93 177 135 0 17 9
25 39 34 58 17 81 51 81 120 0 40 -6 66 -22 91 -11 19 -41 73 -65 120 -24 47
-55 101 -69 120 -14 19 -24 43 -22 54 2 12 30 36 71 61 56 35 78 43 132 47 77
7 111 26 119 68 3 16 8 42 11 58 4 18 16 32 34 40 16 7 65 44 110 83 74 65 81
74 81 107 -1 21 -7 48 -15 62 -8 14 -14 28 -15 32 0 4 32 23 70 44 39 20 70
39 70 43 1 3 11 19 25 35 20 25 26 28 39 16 16 -12 47 -11 118 6 l28 6 -1
-123 c-1 -68 2 -171 6 -229 6 -104 6 -106 -24 -162 -37 -68 -40 -126 -12 -182
13 -24 18 -49 14 -70 -4 -29 -1 -37 29 -59 50 -39 126 -70 156 -64 42 8 52 -1
52 -48 0 -77 53 -165 100 -165 19 0 58 -40 89 -93 29 -48 57 -67 101 -67 57 0
74 -9 95 -53 36 -73 71 -75 149 -6 26 23 48 40 50 38 1 -2 15 -25 30 -51 28
-50 67 -71 89 -49 6 6 26 11 45 11 29 0 35 -5 49 -38 28 -66 23 -104 -22 -154
-124 -140 -141 -168 -113 -196 7 -7 29 -12 49 -12 51 0 172 -46 204 -77 19
-20 25 -36 25 -69 0 -37 6 -51 44 -93 71 -80 84 -160 40 -241 l-26 -49 21 -30
c25 -34 69 -42 91 -16 11 13 16 12 43 -11 20 -17 37 -24 52 -20 14 4 27 -2 38
-14 27 -31 62 -25 107 20 38 38 47 58 79 186 6 23 25 58 41 79 43 54 39 76
-26 143 -30 31 -70 80 -89 107 -18 28 -45 61 -59 74 -14 14 -26 28 -26 32 0 5
13 23 29 42 42 47 46 74 22 135 -12 29 -21 57 -21 63 0 15 64 39 102 39 86 0
135 100 88 178 -11 18 -20 38 -20 45 0 6 28 30 61 52 34 22 67 52 75 67 19 37
62 75 93 83 61 15 91 37 101 74 5 20 10 51 10 69 0 39 20 81 55 116 18 19 25
36 25 66 0 53 19 95 67 150 64 73 80 148 44 218 -10 20 -21 62 -24 92 -3 30
-19 97 -36 148 l-30 94 29 25 c24 20 30 33 30 63 0 46 15 89 32 94 7 2 35 9
62 15 l49 12 43 -45 c44 -46 99 -71 144 -64 18 2 32 16 49 51 13 26 25 46 27
44 2 -2 0 -28 -6 -57 -15 -79 -12 -166 8 -261 25 -113 44 -148 93 -167 28 -11
48 -29 71 -66 39 -63 96 -125 125 -136 11 -5 58 -14 104 -20 62 -9 90 -18 112
-36 16 -13 33 -24 39 -24 6 0 27 17 48 38 33 33 41 36 56 25 49 -36 122 10
110 70 -4 21 7 92 19 124 0 1 27 -11 59 -27 83 -42 119 -37 166 22 14 18 31
28 48 28 37 0 107 37 127 66 l16 25 30 -26 c23 -18 42 -25 74 -25 65 0 91 -14
105 -55 10 -30 9 -40 -4 -60 -21 -31 -20 -69 1 -86 9 -8 27 -37 39 -66 19 -41
30 -53 58 -63 19 -6 47 -25 60 -41 23 -27 25 -36 20 -88 -8 -74 5 -101 49
-101 34 0 47 4 171 47 77 27 81 30 104 77 34 68 32 130 -7 233 -16 45 -45 110
-62 144 l-32 61 31 64 c40 81 49 132 29 170 -18 35 -101 107 -150 130 -32 15
-37 15 -67 0 -18 -9 -37 -16 -41 -16 -5 0 -6 78 -3 173 l5 172 33 32 c21 21
39 53 51 92 13 43 24 62 39 67 12 4 72 31 133 61 115 56 180 72 176 43 -1 -8
-7 -29 -14 -46 -18 -46 6 -78 87 -116 40 -19 70 -40 81 -58 19 -34 80 -70 117
-70 15 0 39 8 53 18 15 9 48 17 73 18 25 0 55 4 66 8 18 7 25 1 44 -32 36 -65
82 -75 114 -27 13 20 16 57 16 193 0 159 -1 171 -22 197 -25 33 -105 85 -128
85 -9 0 -25 9 -35 20 -15 17 -17 30 -11 92 14 156 16 164 56 211 52 64 57 89
27 148 l-25 47 40 38 c60 59 63 67 37 129 -20 48 -21 59 -11 109 6 30 25 91
43 135 43 109 37 129 -56 192 -64 44 -89 68 -152 143 -30 36 -66 33 -142 -11
-87 -52 -115 -90 -121 -167 l-5 -61 -110 0 -110 0 -2 -105 c-1 -58 -2 -111 -2
-117 -1 -7 -8 -13 -16 -13 -16 0 -124 -39 -193 -71 -48 -22 -62 -18 -62 15 0
27 -25 51 -62 60 -15 3 -29 14 -33 24 -12 39 -53 62 -183 101 -73 22 -153 43
-177 47 -91 13 -141 103 -129 233 6 62 5 69 -21 99 -17 20 -42 35 -68 42 -98
24 -147 42 -188 70 -46 31 -95 38 -129 20 -15 -8 -31 -5 -69 15 -58 29 -118
32 -200 10 -51 -13 -56 -13 -82 5 -30 22 -59 26 -76 9 -11 -11 -180 -16 -190
-5 -3 2 13 14 35 25 58 29 92 74 92 121 0 31 -10 51 -56 110 -78 101 -85 126
-68 230 7 46 28 124 45 174 27 73 43 100 90 151 32 33 61 74 65 91 4 16 17 50
30 76 13 26 24 61 24 78 0 40 44 67 122 76 74 8 93 28 84 86 -8 50 -40 105
-65 113 -21 6 -31 33 -31 87 0 33 -5 40 -52 72 -29 19 -61 48 -70 64 -25 42
-85 92 -110 92 -11 0 -45 -14 -74 -31 -62 -35 -73 -34 -154 21 -79 54 -127
111 -171 204 -21 45 -46 86 -56 92 -34 21 -278 161 -338 194 -108 60 -176 91
-239 106 -103 26 -188 55 -260 90 -89 43 -118 43 -184 -1 -79 -54 -187 -105
-220 -105 -16 0 -36 8 -44 18 -18 21 -38 77 -38 108 0 28 -67 88 -129 116 -49
22 -105 19 -146 -8 -36 -23 -40 -49 -15 -90 12 -19 20 -37 18 -40 -3 -2 -18
-1 -35 2 -24 5 -29 10 -26 27 2 12 -7 37 -20 56 -22 33 -23 36 -9 75 13 36 13
45 -1 79 -15 34 -19 37 -56 37 -38 0 -40 2 -77 65 -32 55 -42 65 -65 65 -29 0
-69 -40 -69 -69 0 -9 -12 4 -26 29 -50 88 -85 107 -144 77z"/>
</g>
</svg>
